<?xml version="1.0" encoding="utf-8"?>
<!-- Generator: Adobe Illustrator 23.0.1, SVG Export Plug-In . SVG Version: 6.00 Build 0)  -->
<svg version="1.1" id="レイヤー_1" xmlns="http://www.w3.org/2000/svg" xmlns:xlink="http://www.w3.org/1999/xlink" x="0px"
	 y="0px" viewBox="0 0 469 144" style="enable-background:new 0 0 469 144;" xml:space="preserve">
<style type="text/css">
	.st0{opacity:0.54;enable-background:new    ;}
	.st1{fill:url(#path-2_2_);}
	.st2{fill:#FFA000;}
	.st3{fill:#F57C00;}
	.st4{fill:#FFCA28;}
	.st5{fill:#FFFFFF;fill-opacity:0.2;}
	.st6{opacity:0.2;fill:#A52714;enable-background:new    ;}
	.st7{fill:url(#path-4_2_);}
	.st8{fill:#757575;}
	.st9{fill:#FEFEFE;}
</style>
<title>logo_lockup_firebase_horizontal</title>
<desc>Created with Sketch.</desc>
<path id="Shape" class="st0" d="M140.8,98.5H132V30.8h39.8v8.3h-31.1v22.2h28v8.1h-28v29.1H140.8z M188.3,40.5
	c-2.1,2.1-5.4,2.4-7.8,0.8c-2.5-1.6-3.4-4.8-2.3-7.5s4-4.3,6.9-3.7s5,3.1,5,6C190.2,37.8,189.5,39.4,188.3,40.5L188.3,40.5z
	 M188.3,98.5h-8.8V52.2h8.8V98.5z M207.6,98.5h-8.8V52.2h8.4v7.6h0.4c1-2.7,3-4.9,5.5-6.2c2.4-1.5,5.2-2.4,8.1-2.5
	c2.2-0.1,4.5,0.3,6.6,1.1l-3.3,8.1c-1.5-0.5-3.1-0.7-4.7-0.7c-3.2,0-6.3,1.4-8.4,3.7c-2.4,2.5-3.7,5.8-3.7,9.8L207.6,98.5z
	 M251.7,100c-7.1,0-12.8-2.3-17.2-7s-6.6-10.6-6.6-17.7c-0.1-6.4,2.2-12.6,6.4-17.4c4.1-4.8,10.1-7.5,16.4-7.3
	c6.9,0,12.5,2.2,16.6,6.7s6.2,10.5,6.2,18l-0.1,1.6h-36.9c0.3,4.7,1.8,8.4,4.7,11.1c2.7,2.6,6.4,4.1,10.2,4.1
	c6.3,0,10.5-2.6,12.8-7.9l7.8,3.2c-1.6,3.7-4.2,6.8-7.5,9C261.1,98.8,256.8,100,251.7,100z M264.3,69.7c-0.2-2.7-1.4-5.2-3.7-7.6
	c-2.3-2.4-5.6-3.6-10.1-3.5c-3.1-0.1-6.1,1-8.4,3c-2.5,2.1-4.2,5-4.9,8.1H264.3z M305.4,100c-3.3,0.1-6.6-0.7-9.5-2.2
	c-2.6-1.3-4.8-3.3-6.3-5.7h-0.4v6.4h-8.4V30.8h8.8v21.4l-0.4,6.4h0.4c1.6-2.4,3.8-4.4,6.3-5.7c2.9-1.5,6.2-2.3,9.5-2.3
	c6,0,11.3,2.4,15.6,7.1c4.4,4.7,6.6,10.6,6.6,17.6s-2.2,12.9-6.6,17.6C316.6,97.7,311.4,100,305.4,100z M303.9,92
	c4,0,7.8-1.6,10.5-4.6c2.9-3.1,4.4-7.1,4.4-12.2c0-5-1.5-9.1-4.4-12.2c-2.7-2.9-6.5-4.6-10.5-4.6s-7.8,1.6-10.5,4.5
	c-2.9,3-4.3,7.1-4.3,12.2s1.5,9.2,4.4,12.2C296.1,90.5,300,92.1,303.9,92L303.9,92z M349.9,100c-5,0-9.1-1.4-12.4-4.3
	c-3.3-2.8-5-6.6-5-11.3c0-5,2-9,5.9-11.9s8.8-4.3,14.6-4.3c5.1,0,9.4,0.9,12.7,2.8v-1.3c0.1-3.1-1.2-6.1-3.5-8.2
	c-2.4-2.1-5.5-3.1-8.7-3c-2.4,0-4.8,0.6-6.9,1.8c-2,1.1-3.5,2.8-4.2,4.9l-8-3.4c1.1-2.8,3.2-5.4,6.4-7.7c3.2-2.4,7.4-3.6,12.6-3.5
	c6,0,10.9,1.7,14.9,5.2c4,3.4,5.9,8.3,5.9,14.7v28.1h-8.4v-6.4h-0.4C361.8,97.4,356.6,100,349.9,100L349.9,100z M351.3,92
	c3.7,0,7.2-1.4,9.9-4c2.8-2.4,4.5-5.8,4.5-9.5c-2.5-2-6.2-3-11.2-3c-4.3,0-7.5,0.9-9.6,2.7c-2,1.5-3.2,3.9-3.2,6.4
	c0,2.2,1.1,4.2,3,5.4C346.6,91.4,349,92.1,351.3,92L351.3,92z M399.9,100c-5.2,0-9.5-1.3-12.9-3.8c-3.3-2.4-5.9-5.7-7.4-9.5l7.8-3.2
	c2.5,5.8,6.7,8.7,12.7,8.7c2.4,0.1,4.7-0.5,6.7-1.8c1.6-1,2.6-2.8,2.6-4.7c0-3-2.1-5.1-6.4-6.2l-9.4-2.3c-3.1-0.8-6-2.3-8.5-4.3
	c-2.6-2-4.1-5.2-4-8.6c0-4.1,1.8-7.4,5.5-10c3.8-2.6,8.4-3.9,13-3.8c3.9-0.1,7.7,0.9,11.1,2.8c3.2,1.8,5.6,4.6,7,8l-7.6,3.1
	c-1.7-4.1-5.3-6.2-10.7-6.2c-2.3-0.1-4.6,0.5-6.6,1.6c-1.6,0.8-2.7,2.5-2.7,4.4c0,2.7,2.1,4.5,6.2,5.4l9.2,2.2
	c4.4,1,7.6,2.7,9.7,5.2c2,2.3,3.2,5.3,3.1,8.3c0,4.1-1.9,7.9-5.1,10.4C409.7,98.6,405.3,100,399.9,100L399.9,100z M447.1,100
	c-7.1,0-12.8-2.3-17.2-7s-6.6-10.6-6.6-17.7c-0.1-6.4,2.2-12.6,6.4-17.4c4.1-4.8,10.2-7.4,16.5-7.3c7,0,12.5,2.2,16.6,6.7
	s6.2,10.5,6.2,18l-0.1,1.6H432c0.3,4.7,1.8,8.4,4.7,11.1c2.7,2.6,6.4,4.1,10.2,4.1c6.3,0,10.5-2.6,12.8-7.9l7.8,3.2
	c-1.6,3.7-4.2,6.8-7.5,9C456.4,98.8,452.1,100,447.1,100L447.1,100z M459.6,69.7c-0.2-2.7-1.4-5.2-3.7-7.6
	c-2.3-2.4-5.6-3.6-10.1-3.5c-3.1-0.1-6.1,1-8.4,3c-2.5,2.1-4.2,5-4.9,8.1H459.6z"/>
<linearGradient id="path-2_2_" gradientUnits="userSpaceOnUse" x1="-931.0934" y1="383.7639" x2="-930.0502" y2="383.0051" gradientTransform="matrix(95.3333 0 0 -131.0572 88761.7031 50323.3242)">
	<stop  offset="0" style="stop-color:#FFFFFF;stop-opacity:0.1"/>
	<stop  offset="0.14" style="stop-color:#FFFFFF;stop-opacity:8.000000e-02"/>
	<stop  offset="0.61" style="stop-color:#FFFFFF;stop-opacity:2.000000e-02"/>
	<stop  offset="1" style="stop-color:#FFFFFF;stop-opacity:0"/>
</linearGradient>
<path id="path-2_1_" class="st1" d="M83.8,35.3c-0.2-1.1-1-2-2-2.3c-1.1-0.3-2.2-0.1-3,0.7L63.3,49.2L51.1,26
	c-0.5-1-1.5-1.6-2.6-1.6c-1.1,0-2.1,0.6-2.6,1.6l-6.7,12.7L22.5,7.6c-0.6-1.1-1.9-1.7-3.1-1.5c-1.3,0.2-2.2,1.2-2.4,2.5L0.8,111.8
	L43.9,136c2.7,1.5,6,1.5,8.7,0l43.5-24.2L83.8,35.3z"/>
<path id="_Path_" class="st2" d="M0.9,111.8L17,8.5c0.2-1.3,1.2-2.3,2.4-2.5c1.3-0.2,2.5,0.4,3.1,1.5l16.7,31.1L45.9,26
	c0.5-1,1.5-1.6,2.6-1.6c1.1,0,2.1,0.6,2.6,1.6l45,85.7H0.9V111.8z"/>
<polygon id="Shape_1_" class="st3" points="56.6,71.5 39.2,38.6 0.9,111.7 "/>
<path id="Shape_2_" class="st4" d="M96.2,111.8L83.9,35.3c-0.2-1.1-1-2-2-2.3c-1.1-0.3-2.2-0.1-3,0.7l-78,78.1L44,136
	c2.7,1.5,6,1.5,8.7,0L96.2,111.8z"/>
<path id="_Compound_Path_" class="st5" d="M83.8,35.3c-0.2-1.1-1-2-2-2.3c-1.1-0.3-2.2-0.1-3,0.7L63.3,49.2L51.1,26
	c-0.5-1-1.5-1.6-2.6-1.6c-1.1,0-2.1,0.6-2.6,1.6l-6.7,12.7L22.5,7.6c-0.6-1.1-1.9-1.7-3.1-1.5c-1.3,0.2-2.2,1.2-2.4,2.5L0.8,111.8
	H0.7l0.1,0.1l0.4,0.2l62-62.1l15.5-15.5c0.8-0.8,2-1.1,3-0.7c1.1,0.3,1.8,1.2,2,2.3L96,111.9l0.1-0.1L83.8,35.3z M0.9,111.6
	l16-102.3C17.1,8,18.1,7,19.3,6.8c1.3-0.2,2.5,0.4,3.1,1.5l16.7,31.1l6.7-12.6c0.5-1,1.5-1.6,2.6-1.6c1.1,0,2.1,0.6,2.6,1.6
	l11.9,22.7L0.9,111.6z"/>
<path id="_Path_2" class="st6" d="M52.6,135.2c-2.7,1.5-6,1.5-8.7,0l-43-24.1l-0.1,0.7L43.9,136c2.7,1.5,6,1.5,8.7,0l43.5-24.2
	l-0.1-0.7L52.6,135.2z"/>
<linearGradient id="path-4_2_" gradientUnits="userSpaceOnUse" x1="-883.3929" y1="383.7618" x2="-882.3497" y2="383.003" gradientTransform="matrix(95 0 0 -131 83920 50301.1016)">
	<stop  offset="0" style="stop-color:#FFFFFF;stop-opacity:0.1"/>
	<stop  offset="0.14" style="stop-color:#FFFFFF;stop-opacity:8.000000e-02"/>
	<stop  offset="0.61" style="stop-color:#FFFFFF;stop-opacity:2.000000e-02"/>
	<stop  offset="1" style="stop-color:#FFFFFF;stop-opacity:0"/>
</linearGradient>
<path id="path-4_1_" class="st7" d="M83.7,35.3c-0.2-1.1-1-2-2-2.3c-1.1-0.3-2.2-0.1-3,0.7L63.2,49.2L51.1,26
	c-0.5-1-1.5-1.6-2.6-1.6S46.4,25,45.9,26l-6.6,12.7L22.6,7.6c-0.6-1.1-1.9-1.7-3.1-1.5c-1.3,0.2-2.2,1.2-2.4,2.5L1,111.7l43,24.2
	c2.7,1.5,6,1.5,8.7,0L96,111.7L83.7,35.3z"/>
<path class="st0" d="M270.5,130.3h-7.7l-1.9,6.3h-3.6l7.3-22.2h4l7.3,22.2h-3.7L270.5,130.3z M269.7,127.6l-0.9-3
	c-0.8-2.4-1.4-4.9-2.1-7.4h-0.1c-0.6,2.5-1.3,5-2,7.4l-0.9,3H269.7z"/>
<path class="st0" d="M278.3,130.5v-10.4h3.5v10c0,2.9,0.8,4,2.8,4c1.5,0,2.6-0.7,4-2.5v-11.5h3.5v16.6h-2.8l-0.3-2.5h-0.1
	c-1.5,1.7-3.1,2.9-5.4,2.9C279.9,137,278.3,134.7,278.3,130.5z"/>
<path class="st0" d="M297.7,131.2v-8.4h-2.4v-2.6l2.6-0.2l0.4-4.6h2.9v4.6h4.3v2.8h-4.3v8.4c0,2,0.7,3,2.4,3c0.6,0,1.3-0.2,1.8-0.4
	l0.6,2.6c-0.9,0.3-2,0.6-3.3,0.6C299,137,297.7,134.7,297.7,131.2z"/>
<path class="st0" d="M309.1,112.6h3.4v6.4l-0.1,3.3c1.4-1.4,3.1-2.6,5.4-2.6c3.5,0,5.1,2.3,5.1,6.6v10.4h-3.5v-10c0-2.9-0.8-4-2.8-4
	c-1.5,0-2.6,0.8-4.1,2.3v11.7h-3.4V112.6z"/>
<path class="st0" d="M326.6,128.4c0-5.4,3.7-8.7,7.6-8.7c4.4,0,6.7,3.2,6.7,7.9c0,0.7-0.1,1.4-0.2,1.7H330c0.3,3.2,2.3,5.1,5.1,5.1
	c1.5,0,2.7-0.5,3.9-1.2l1.2,2.2c-1.5,1-3.4,1.7-5.6,1.7C330.2,137,326.6,133.8,326.6,128.4z M338,126.9c0-2.9-1.3-4.5-3.7-4.5
	c-2.1,0-3.9,1.6-4.2,4.5H338z"/>
<path class="st0" d="M344.8,120.1h2.8l0.3,2.3h0.1c1.5-1.5,3.2-2.7,5.5-2.7c3.5,0,5.1,2.3,5.1,6.6v10.4h-3.5v-10c0-2.9-0.8-4-2.8-4
	c-1.5,0-2.6,0.8-4.1,2.3v11.7h-3.4V120.1z"/>
<path class="st0" d="M364.1,131.2v-8.4h-2.4v-2.6l2.6-0.2l0.4-4.6h2.9v4.6h4.3v2.8h-4.3v8.4c0,2,0.7,3,2.4,3c0.6,0,1.3-0.2,1.8-0.4
	l0.6,2.6c-0.9,0.3-2,0.6-3.3,0.6C365.4,137,364.1,134.7,364.1,131.2z"/>
<path class="st0" d="M375,114.9c0-1.2,0.9-2,2.2-2c1.3,0,2.2,0.8,2.2,2s-1,2-2.2,2C376,117,375,116.1,375,114.9z M375.5,120.1h3.4
	v16.6h-3.4V120.1z"/>
<path class="st0" d="M383,128.4c0-5.5,3.8-8.7,8.2-8.7c2.1,0,3.6,0.8,4.8,1.9l-1.7,2.3c-0.9-0.8-1.8-1.3-3-1.3
	c-2.8,0-4.8,2.3-4.8,5.9c0,3.5,1.9,5.8,4.7,5.8c1.4,0,2.6-0.7,3.6-1.5l1.4,2.3c-1.5,1.4-3.5,2-5.4,2C386.4,137,383,133.9,383,128.4z
	"/>
<path class="st0" d="M398.4,132.2c0-3.6,3-5.4,9.9-6.1c0-1.9-0.7-3.6-3.2-3.6c-1.7,0-3.4,0.8-4.8,1.7l-1.3-2.3
	c1.7-1.1,4-2.2,6.7-2.2c4.1,0,6,2.6,6,7v10H409l-0.3-1.9h-0.1c-1.5,1.3-3.3,2.3-5.3,2.3C400.5,137,398.4,135.2,398.4,132.2z
	 M408.3,132.4v-4.1c-4.9,0.6-6.6,1.8-6.6,3.7c0,1.6,1.1,2.3,2.6,2.3C405.8,134.3,407,133.6,408.3,132.4z"/>
<path class="st0" d="M416.7,131.2v-8.4h-2.4v-2.6l2.6-0.2l0.4-4.6h2.9v4.6h4.3v2.8h-4.3v8.4c0,2,0.7,3,2.4,3c0.6,0,1.3-0.2,1.8-0.4
	l0.6,2.6c-0.9,0.3-2,0.6-3.3,0.6C418,137,416.7,134.7,416.7,131.2z"/>
<path class="st0" d="M427.6,114.9c0-1.2,0.9-2,2.2-2s2.2,0.8,2.2,2s-1,2-2.2,2S427.6,116.1,427.6,114.9z M428.1,120.1h3.4v16.6h-3.4
	V120.1z"/>
<path class="st0" d="M435.6,128.4c0-5.5,3.7-8.7,7.8-8.7c4.1,0,7.8,3.2,7.8,8.7s-3.7,8.6-7.8,8.6C439.3,137,435.6,133.9,435.6,128.4
	z M447.6,128.4c0-3.5-1.6-5.9-4.2-5.9s-4.2,2.3-4.2,5.9c0,3.5,1.6,5.8,4.2,5.8S447.6,131.9,447.6,128.4z"/>
<path class="st0" d="M455.2,120.1h2.8l0.3,2.3h0.1c1.5-1.5,3.2-2.7,5.5-2.7c3.5,0,5.1,2.3,5.1,6.6v10.4h-3.5v-10c0-2.9-0.8-4-2.8-4
	c-1.5,0-2.6,0.8-4.1,2.3v11.7h-3.4V120.1z"/>
<circle class="st8" cx="86.2" cy="108.5" r="28.5"/>
<path class="st9" d="M92.4,106.9c2.6,0,4.7-2.1,4.7-4.7s-2.1-4.7-4.7-4.7s-4.7,2.1-4.7,4.7S89.8,106.9,92.4,106.9z M79.9,106.9
	c2.6,0,4.7-2.1,4.7-4.7s-2.1-4.7-4.7-4.7s-4.7,2.1-4.7,4.7S77.3,106.9,79.9,106.9z M79.9,110c-3.6,0-10.9,1.8-10.9,5.5v3.9h21.9
	v-3.9C90.9,111.9,83.6,110,79.9,110z M92.4,110c-0.5,0-1,0-1.5,0.1c1.8,1.3,3.1,3.1,3.1,5.4v3.9h9.4v-3.9
	C103.4,111.9,96.1,110,92.4,110z"/>
</svg>
