<?xml version="1.0" encoding="utf-8"?>
<!-- Generator: Adobe Illustrator 24.3.0, SVG Export Plug-In . SVG Version: 6.00 Build 0)  -->
<svg version="1.1" id="レイヤー_1" xmlns="http://www.w3.org/2000/svg" xmlns:xlink="http://www.w3.org/1999/xlink" x="0px"
	 y="0px" viewBox="0 0 767.83 462.98" style="enable-background:new 0 0 767.83 462.98;" xml:space="preserve">
<path d="M182.76,120.75h144.43v11.51H196v86.59h123.36v11.51H196v95.06h132.69v11.51H182.76L182.76,120.75z M340.13,120.75h15.35
	l68,95.06l69.51-95.06L587.52,0L432.2,225.8l80.04,111.11h-15.95L423.48,235.8l-73.11,101.12h-15.65l80.64-111.11L340.13,120.75
	L340.13,120.75z M517.96,132.26v-11.51h164.58v11.51h-75.82v204.65h-13.24V132.26L517.96,132.26L517.96,132.26z M2.08,120.75h16.55
	l228.2,342.23l-94.31-126.06L15.92,137.1l-0.6,199.82H2.08L2.08,120.75z M681.22,321.94c-2.71,0-4.74-2.1-4.74-4.81
	c0-2.72,2.03-4.82,4.73-4.82c2.74,0,4.73,2.1,4.73,4.82C685.95,319.84,683.95,321.94,681.22,321.94L681.22,321.94z M694.22,309.27
	h7.09c0.1,3.85,2.9,6.43,7.02,6.43c4.6,0,7.21-2.77,7.21-7.98v-32.96h7.21v32.99c0,9.37-5.41,14.77-14.36,14.77
	C699.99,322.52,694.23,317.28,694.22,309.27L694.22,309.27z M732.19,308.85h7.15c0.61,4.42,4.93,7.23,11.14,7.23
	c5.79,0,10.04-3.01,10.04-7.14c0-3.55-2.7-5.69-8.86-7.14l-5.99-1.45c-8.4-1.97-12.24-6.05-12.24-12.9c0-8.31,6.76-13.83,16.9-13.83
	c9.44,0,16.33,5.53,16.75,13.38h-7.02c-0.67-4.29-4.41-6.98-9.82-6.98c-5.7,0-9.5,2.75-9.5,6.95c0,3.33,2.45,5.24,8.5,6.66
	l5.12,1.26c9.53,2.23,13.46,6.11,13.46,13.12c0,8.92-6.9,14.51-17.9,14.51C739.63,322.52,732.7,317.19,732.19,308.85L732.19,308.85z
	"/>
</svg>
