<?xml version="1.0" encoding="utf-8"?>
<!-- Generator: Adobe Illustrator 23.0.1, SVG Export Plug-In . SVG Version: 6.00 Build 0)  -->
<svg version="1.1" id="レイヤー_1" xmlns="http://www.w3.org/2000/svg" xmlns:xlink="http://www.w3.org/1999/xlink" x="0px"
	 y="0px" viewBox="0 0 928 295.7" style="enable-background:new 0 0 928 295.7;" xml:space="preserve">
<style type="text/css">
	.st0{fill:#DD3735;}
	.st1{fill:#DD3A0A;}
	.st2{fill:#3F526B;}
	.st3{fill:#DD390A;}
</style>
<title>postcss-logo-symbol</title>
<g>
	<path class="st0" d="M55.2,123.5c0.4,0.3,1.1,0.5,0.4,1.1c-0.5,0.7-1.1,1.3-1.5,2.1c-0.4,0.7-0.7,0.9-1.3,0.4
		C53.6,125.8,54.4,124.6,55.2,123.5L55.2,123.5z M256,228.4c0,0.3,0.1,0.5,0.1,0.8c0.2-0.4,0.2-0.6,0.3-0.8H256z M256,229.3
		L256,229.3L256,229.3z M217.7,150.1c-0.1,0.3-0.1,0.6-0.1,0.9C217.6,150.7,217.6,150.4,217.7,150.1L217.7,150.1z M217.8,152.1
		c-0.1,0-0.1,0-0.2-0.1v0.1C217.7,152.2,217.7,152.2,217.8,152.1L217.8,152.1z M217.6,152.9v-0.7c-0.3,0.1-0.6,0.1-1,0.2
		C217.1,152.6,217.6,152.7,217.6,152.9L217.6,152.9z"/>
	<path class="st1" d="M295.4,128.6c-0.2-3.9-0.3-7.8-0.7-11.7c-0.7-5.3-1.4-10.7-2.6-15.9c-0.9-4.3-2.4-8.4-3.9-12.5
		c-1.9-4.8-3.8-9.7-6.2-14.3c-3.9-7.4-9-14-13.7-20.9c-3.1-4.4-7.1-8-10.1-12.5c-1.7-2.6-4.2-4.8-6.7-6.8c-4-3.2-8.2-6.1-12.4-8.9
		c-3.2-2.2-6.4-4.3-9.8-6.2c-2.7-1.5-5.6-2.7-8.4-4c-3.2-1.5-6.3-3.3-9.9-4c-0.9-0.2-1.7-0.5-2.6-0.8c-2.3-0.8-4.5-1.7-6.8-2.4
		c-3.5-1.1-6.9-2.4-10.5-3.3c-3.5-0.9-7.1-1.5-10.7-2c-4-0.6-8.1-0.8-12.1-1.2c-2.6-0.3-5.1-0.6-7.7-0.7c-3.8-0.2-7.7-0.2-11.5-0.3
		c-1.9-0.1-3.9-0.3-5.8-0.2c-2.9,0.1-5.8,0.4-8.7,0.8c-2.8,0.3-5.6,0.8-8.3,1.2c-3.3,0.4-6.6,0.6-9.9,1c-3.1,0.4-6.3,1-9.4,1.5
		c-1.1,0.2-2.2,0.6-3.3,0.8c-2.3,0.4-4.8,0.6-7.2,1.4c-4.3,1.3-8.6,2.8-12.8,4.4c-3.9,1.6-7.7,3.3-11.4,5.3c-3.8,2.1-7.4,4.6-11,7
		c-3.4,2.3-6.8,4.8-10,7.3s-6.2,5.3-9.1,8.1c-1.6,1.6-2.9,3.5-4.4,5.3c-2.5,2.9-5,5.7-7.4,8.7c-2,2.5-3.8,5.1-5.7,7.7
		c-3.4,4.6-6.3,9.5-9,14.4c-1.1,2-2.1,4-3.1,6c-1.5,3-3.1,5.9-4.5,9c-1,2.1-1.8,4.4-2.4,6.7c-1.4,4.9-2.8,9.9-4.1,14.8
		c-1.2,4.4-1.5,9-1.6,13.5c-0.1,4,0.3,7.9,0.7,11.9c0.1,1-0.5,2.2,0.7,3c-0.4,1.1-0.1,1.7,0.5,1.9c-0.7,1.1,0.3,1.8-0.1,2.8
		c-0.1,0.2,0.3,0.6,0.5,0.9c0,0.3-0.1,0.7,0,1c0.1,0.9,0.5,1.8,0.5,2.8c0,0.7,0.6,1.5,0.8,2.2c0.1,0.3,0,0.8-0.2,1
		c-0.6,0.7-0.5,1.3,0.4,1.7c0.5,1.3,0.3,1.9,0.2,2.5c0.2,0.9-0.1,1.2,0,1.4c0.8,1.6,1.1,3.4,1.2,5.2c0,0.4,0.2,0.8,0.4,1.3
		c0.1,0,0,1.9,0,1.9c0.5-0.3,0.9-0.4,1.4-0.6c0.3,1.3,0.6,2.5,1,3.6c0.5,0.8,0.5,1.2,0.3,1.3c0.4,1.8,0.6,3.5,1.3,5.2
		c0-1.9-0.2-3.8-0.5-5.6c1.4,0.5,2.6,1,3.4,1c0.1-0.3,0.2-0.7,0.3-0.9c-0.6-0.6-1.1-1.5-1.7-2.1c0.2,0.8,0,1.1,0,1.4
		c-0.4-0.2-0.9-0.4-1.4-0.6c0.4-0.5,0.8-1,1.4-1.6c0-0.9-0.5-1.7-1.9-1.6c0.6-0.2,1.2-0.5,1.9-0.7c1.1-0.6-0.1-1.7-0.1-3.1
		c0.1-1.7-0.9-3.4-1.2-5.2c-0.5-2.8-0.4-7-0.7-9.8c-0.6-0.5-1.1,0.8-1.2,0.9c0.3,2.4,0.6,4.8,0.8,7.2c-0.6-2-1-4.2-1.5-6.6
		c-0.1,0.7-0.2,1-0.2,1.4c-0.5,0.5-0.1,1.1,0.2,1.8c-0.7-0.3-1.5-0.2-1.5-0.2v2.8c-1-1-1.3-1.8-1.8-2.5c-0.2-0.8-0.3-1.6-0.5-2.4
		c0.2-0.5,0-0.8,0-1.1c-0.1-0.8-0.2-1.6-0.3-2.4c0.1-0.1-0.1-1.6-0.1-1.6c0.8,0.1,1.3,0.2,1.8,0.2c-1-1.3-0.3-2.1,0.1-2.9
		c0.2-0.4,0.9-0.5,1.1-0.9c0.8-1.5,2.1-2.7,2.1-4.6c0-0.9,0.3-1.9,0.4-2.8c0.2-1.7,0.4-3.4,0.5-5.1c0.2-2.2,0-4.4,0.5-6.5
		c0.8-3.5,1.8-7,2.9-10.5c0.8-2.5,1.7-4.9,2.7-7.4c1.5-3.9,2.9-7.8,4.8-11.5c2.7-5.4,5.8-10.6,8.8-15.9c1.9-3.3,3.9-6.4,6-9.6
		c2-3.1,4-6.3,6.3-9.2c3.2-4.1,6.7-7.9,10.6-11.3c4-3.6,7.8-7.3,12.1-10.6c5.6-4.3,11.5-8.1,17.8-11.4c5.1-2.7,10.4-4.8,15.7-6.8
		c3.4-1.3,7.1-1.9,10.6-3c4-1.3,8-1.9,12.2-2c2.7-0.1,5.3-0.4,8-0.7c2.4-0.2,4.8-0.4,7.4-0.7c-0.3,0.4-0.4,0.6-0.5,0.8
		c-1.1,1.6-2.3,3.2-3.4,4.8c-0.9,1.3-1.9,2.7-2.8,4c-1.6,2.1-3.3,4.2-4.8,6.4c-2.3,3.3-4.4,6.7-6.8,10c-2.4,3.2-5,6.2-7.5,9.3
		c-3.3,4.3-6.4,8.7-9.7,13c-3,4.1-6.2,8-9.1,12.1c-2.6,3.6-4.9,7.4-7.4,11.1c-3.7,5.5-7.4,10.9-11.1,16.4c-2.9,4.2-5.8,8.4-8.8,12.5
		c-0.2,0.3-0.5,0.4-0.8,0.6c-0.8,1.3-0.8,2-1.1,2.6c-0.8,1.5-1.6,3-2.5,4.4c-0.5,0.8-1.2,1.5-1.8,2.3c-0.1-1.2,1.6-1.8,0.8-3.3
		c-0.5,0.8-1,1.5-1.5,2.3l-1.2,2.4c0.4,0.3,1.1,0.5,0.4,1.1c-0.3,0.5-0.6,1.1-0.9,1.6c0.4-0.3,0.8-0.6,1.1-1c0,1.1-0.6,2-1.1,2.9
		c-0.4,0.8-1.4,1.4-2.1,2c0.1,0.1,0.8,0.4,0.9,0.5c0.9-0.3,1.2-0.8,1.3-0.5c0.3-0.4,0.6-0.7,0.7-1c0.4-1,1-1.8,2-2.2
		c0.4-0.2,0.7-0.5,1-0.8c3-3.1,6.1-6.1,8.8-9.4c4.2-5.1,8-10.4,12-15.6c1.7-2.2,3.7-4.4,5.5-6.5c0.3,2.3,0.1,4.5,0,6.6
		c-0.3,3.7-0.5,7.4-0.8,11.2c-0.1,1.5,0,3-0.1,4.5c0,0.4-0.3,0.7-0.3,1.1c0,1,0.3,2.1,0.3,3.1c-0.3,3.7-0.7,7.3-1,11
		c-0.1,0.8,0.3,1.6,0.5,2.3c-0.5,5.4,0.6,11.1-0.3,16.8c0.7-1.1,0.9-1.8,0.9-2.5c0.1-0.6,0-1.2,0-1.9v-1c0.1-1.8,0.5-3.7,0.3-5.5
		c-0.2-2-0.2-3.9,0.2-5.8c0.2-0.8-0.1-1.8,0.4-2.8v1.5c-0.1,5.7,0.1,11.4-0.7,17.1c-0.1,0.5,0.3,1.4-0.8,1.3
		c-0.9,1.8,0.2,3.1-0.8,4.1c-0.2,0.2,0.2,1.1,0.3,1.7c-0.4,1.2-0.4,1.2,0.2,1.3c0.1,2.2,0.3,4.2,0.4,6.3c1.6-3.8,0.8-7.7,1.5-11.6
		c0.1,1.6,0.2,3.2,0.1,4.9c0,2.6-0.1,5.1-0.2,7.7c0,0.5-0.1,1-0.2,1.5c-0.3,1.4-0.4,2.8-0.9,4.1c-0.4,1-0.2,2.5-0.2,3.7v3.8
		c0.4,1.7-0.1,2.6,0.2,3.6c-0.3,1-0.4,1.3-0.3,1.6l0.3,1.5c2-0.2,1.1,1.3,1.9,2.1c-0.6,0.8-0.4,1.1-0.4,1.5c0,0.9-0.1,1.7-0.2,2.6
		c0,2.3-0.1,4.6-0.1,6.8c0,0.3,0.1,0.6,0.1,0.9c0,0.2-0.1,2.8-0.1,2.8c0.2,0.3,0,0.6-0.3,0.9c-0.1,0-0.4-12.7-0.4-12.7H83
		c-0.2,6,0.3,11.4-0.8,17c-1.2,0.1-1.6,0.3-2.9,0.3c-3.1,0-6.2,0-9.3,0.1c-3.7,0-7.3,0.1-11,0.1c-1.8,0-3.7,0.2-5.5,0.2
		c-2.4,0-4.9-0.3-7.3-0.3c-3.7,0-7.3,0.3-11,0.4c-2.7,0.1-5.4,0.1-8.1,0.2c-1.8,0.1-3.6,0.2-5.4,0.4c-0.8,0.1-1.5,0.4-2.5,0.7
		c-0.3,0-1-0.1-1.6,0c-1,0.2-1.9,0.8-2.9,1c-1.5,0.3-1.9,0.7-1.7,2.2v1c-0.1,0.2,2.2-0.3,2.2-0.3c-0.2,0-0.3,0.6-0.6,1.1
		c0.8-0.3,1.3-0.5,1.8-0.7c1.5,0.7,2.8,0.3,4,0.6c3.9,1,7.9,1.4,11.9,1.8c2.6,0.2,5.1,0.3,7.7,0.4c3.7,0.2,7.4,0.4,11.1,0.4
		c3.1,0,6.1-0.3,9.2-0.3c4.3,0,8.6,0.2,12.9,0.3c0.9,0,1.9-0.1,2.9-0.1h7.3c6.5-0.2,13-0.3,19.5-0.5c3.7-0.1,7.5-0.3,11.2-0.4
		l11.4-0.3c4.4-0.1,8.8-0.1,13.1-0.2c3.3,0,6.5-0.1,9.8-0.2c3.7-0.1,7.5-0.4,11.2-0.6c2-0.1,4-0.3,6-0.5c2.4-0.2,4.9-0.5,7.3-0.6
		c3.6-0.2,7.3-0.3,10.9-0.5c4.5-0.3,9-0.7,13.6-0.8c4.2-0.2,8.5-0.1,12.7-0.2c3.7-0.1,7.4-0.3,11.2-0.4l6.3-0.3c0,0,4.2-0.1,6.3-0.3
		c3.6-0.2,7.2-0.6,10.8-0.7c2.3-0.1,4.6,0,6.9-0.1c3.7-0.1,7.5-0.3,11.2-0.3c1.4,0,2.9,0.2,4.7,0.3c-0.8,0.7-1.3,1.1-1.9,1.6
		c0.4,0.1,0.8,0.3,1.2,0.5c-0.5,0.3-1,0.5-1.6,0.5c-0.2,0.5-0.4,0.7-0.6,1.7h1.8c-0.7,0-1.3,0.9-2,1.5c-0.8-0.2-1.5,0-1.9,1.1
		c0.7,0.4,0.6,0.7,0.5,1.1c-1.2,0.4-2.1,0.8-1.6,2.1c-0.4,0.2-0.9,0.4-1.4,0.7c-0.5,0.8-1.4,1-1.2,2.1c0.4,0.1,0.8,0.3,1.1,0.4
		c-0.5,0.2-1,0.5-1.5,0.7c-1.8,1.1-1,1.6-0.6,2.1c-0.3,0.2-0.6,0.4-0.9,0.5c0.2,0.9,0.5,1.1,0.6,1.1c-0.5,0.4-1,0.8-1.5,1.2
		c-0.3,0.9-0.7,1.3-1.1,1.9c-0.4,0.6-0.6,1.4-1.1,2c-2.1,2.3-3.6,5-6.3,6.8c-1,0.7-1.9,1.6-2.8,2.5c-1.8,1.7-3.4,3.6-5.3,5.2
		c-2.5,2.1-5.1,4-7.8,5.9c-3.3,2.3-6.6,4.6-9.9,6.8c-1.8,1.2-3.8,2.1-5.7,3.2s-3.7,2.1-5.6,3.2c-1.2,0.8-2.3,1.9-3.6,2.5
		c-3.3,1.4-6.8,2.6-10.2,3.9c-3.3,1.4-5.7,2.6-8.2,3.5c-2.3,0.8-4.7,1.4-7.1,1.9c-0.8,0.2-1.7,0-2.6,0.1c-1.7,0.3-3.4,0.7-5.1,0.9
		c-4.4,0.6-8.8,1-13.2,1.6c-2.6,0.3-5.1,0.8-7.7,1.1c-1.8,0.1-3.7-0.1-5.5-0.1c-1.3,0-2.7,0.3-4,0.1c-2.1-0.3-4.2-0.8-6.3-1.2
		c-0.5-0.1-1.2-0.3-1.6-0.1c-0.8,0.4-1.5-0.2-2.3,0c-0.5,0.1-1-0.3-1.5-0.3c-0.4-0.1-0.9,0.1-1.4,0c-1.1-0.3-2.1-0.7-3.3-0.6
		s-2.4-0.5-3.7-0.8c-1.8-0.4-3.5-0.8-5.3-1.2c-0.7-0.2-1.4-0.5-2-0.9c-2.6,0-4.3-0.1-5.9-0.7c-1.4-0.5-2.7-1.2-4.2-1
		c-0.4,0.1-0.7-0.1-1.1-0.1c-0.3-0.4-0.6-1.2-0.9-1.2c-2,0.1-3.2-1.6-4.9-2.1c-0.9-0.3-1.6-1.3-2.5-1.6c-2.2-0.9-4-2.8-6.5-3.1
		c-0.8-0.1-1.6-0.5-2.5-0.8c0.3,0.4,0.5,0.7,0.8,1c-2.9-1.4-5.6-3-8.3-4.5c-0.4-0.1-0.7-0.5-1-0.7l-2.7-1.8
		c-1.5,0.3-2.1-0.3-2.5-0.5c-2.7-1.9-5.8-3.1-8.4-5.2c-1.1-0.9-2.4-1.5-3.2-2.6c-1.4-1.7-3.1-2.9-5-3.9c-1.5-0.8-2.9-1.7-4.3-2.6
		c-0.7-0.5-1.4-1.1-1.4-2.2c0-0.7-0.3-1.4-1.2-1c-0.4-0.6-0.8-1.3-1.3-1.5c-1.2-0.5-2-1.4-2.9-2.2c-0.9-0.8-1.6-1.9-2.7-2.3
		c-2-0.8-3.2-2.5-4.4-3.9c-2.8-3.3-5.3-6.9-7.9-10.4c-0.2-0.3-0.6-0.5-0.9-0.8c0.4,1.1,0.9,2,1.4,3c-1-0.4-1.7-1.1-2.3-1.8
		c-0.1,0.1,6.9,11.6,6.9,11.6c0.6,0.9,1.1,1.8,1.7,2.7c-1.2,0.1-2.4-0.5-3-1.6c-0.9-1.6-1.9-2.6-3.9-2.4c-0.2-0.7-0.4-1.5-0.5-2.2
		c-0.4,0-0.7,0-1.4-0.1c1.4,2.2,2.6,4.1,3.9,6.3c-0.5-0.3-0.8-0.5-1-0.6c1.8,1.9,3.1,4.3,5.4,5.5c0.5,2.3,3.1,3.4,3.7,5.6
		c-0.5-0.1-0.9-0.2-1.4-0.3c-0.8-1-1.7-2-2.6-3.1c0.2,0.7,0.5,1.3,0.9,1.8c1.2,1.5,2.3,3,3.7,4.3c0.5,0.5,1.2,0.7,1.2,1.6
		c0.8,0.4,1.1,0.5,1.4,0.5c0.2,0.6-0.1,1.5,1.1,1.3c0.8,1.5,1.6,1.5,2.7,1c1.3,1.3,2,1.4,2.9,0.6c0,0.5,0.1,1,0.1,1.4
		c0.4-0.2,0.3-0.5,0.3-1c0.5,0.4,0.8,0.6,1,0.8c1,1.4,1.9,2.7,3.3,3.8c1.9,1.6,3.6,3.3,5.4,4.8c3.5,2.9,7.4,5.3,11.3,7.5
		c4.8,2.7,9.4,5.6,14.3,8.2c5.9,3.1,12.2,5.2,18.7,6.7c2.4,0.5,4.7,1,7.1,1.6c2.1,0.6,4.2,1.5,6.3,2c3.2,0.7,6.5,1.3,9.7,1.9
		c0.7,0.1,1.4,0.2,2.2,0.3c0.9,0.2,2-0.2,2.2,0.1c0.5,0.8,0.9,0.4,1.5,0.3c0.7-0.2,1.5-0.2,2.3-0.2c2.8,0.1,5.5,0.7,8.3,0.5
		c0.6,0,1.5-0.5,2,0.5c0.9-0.4,1.4-0.4,1.8-0.5c0.1,0.9,0,0.9-0.2,1s-0.5,0.2-0.9,0.5c3.6,0.7,7,0.8,10,0c5.2,0.4,9.7-0.2,14-1.7
		c0.4,0.5,0.7,1.2,1.3,0.2c0.2-0.3,0.7-0.4,1.1-0.5c0.9-0.2,2-0.6,2.8-0.3c0.9,0.3,1.2-0.5,1.9-0.5c1.2,0,2.3-0.1,3.4-0.3
		c0.6-0.1,1.2-0.4,1.9-0.6c-0.7-0.3-1.4-0.5-2.2-0.5c1.2-0.6,2.3-1.1,3.4-1.6c-0.2,0.3-0.4,0.7-0.8,0.7h1.4c-0.3,0-0.7,0.9-1.2,1.5
		c3.6-0.9,6.9-1.7,10.1-2.5c-1.1-2.1,1.2-1.4,2-2.6c-1,0.3-2,0.6-3,0.8c3.4-1.7,6.9-3.2,10.3-4.7c-0.5,0.6-1.1,0.9-2,1.4
		c0.6,0.1,1,0.1,1.3,0.2c1.6,0.5,1.2-1,1.7-1.9c1.9,0,2.7-0.3,3.6-0.6c1-0.3,2-0.6,3-1c1.6-0.7,3.1-1.6,4.7-2.4c0.3-0.1,0.8,0,1.2,0
		c1.1-0.7,1.5-1.3,1.8-1.2c1.4,0.2,2.4-0.3,2.8-1.6c0.7-0.5,1.2-0.9,1.7-1.2c2.2-1.2,4.3-2.4,6.5-3.6c0.8,0,1.2,0,1.4-0.1
		c1.3-0.6,2.5-1.3,3.7-2c-0.3-0.1-0.7-0.3-1-0.5c1-0.2,1.3-0.3,1.9-0.5c2.4-2.8,5.7-4.7,8.2-6.9c1.1-0.1,1.1-0.4,1.1-0.6
		c0.4-0.5,0.8-1.1,1.3-1.5c2.2-2,4.6-3.7,6.6-5.8c2.9-2.9,5.7-5.9,8.3-9c2.4-2.8,4.8-5.6,6.8-8.7c2.8-4.3,5.2-8.7,7.7-13.2
		c1.8-3.2,3.4-6.4,5.2-9.6c0.2-0.3,0.6-0.7,0.9-0.7c2.7-0.3,5.4-0.5,8-0.8c0.6-0.1,1.3-0.5,1.9-0.8c-0.3-0.5-0.5-1.1-0.8-1.6
		c-0.4-0.6-1-1.1-1.4-1.7c-0.4-0.5-0.7-1.1-1-1.7c-0.3-0.5-0.6-0.9-0.9-1.4c-0.6-1.1-1.2-2.2-1.7-3.4c-0.1-0.3-0.3-0.8-0.2-1.1
		c1.8-3.9,2.5-8.1,4.2-12c1.7-4,2.2-8.5,3-12.8c0.7-4.1,1.1-8.2,1.6-12.3c0.3-2.9,0.7-5.7,0.8-8.6c0.6-4.6,0.4-8.9,0.3-13.2
		C295.8,136.3,295.6,132.4,295.4,128.6L295.4,128.6z M44.7,251.8c-0.7-0.8-1.3-1.7-2-2.5L43,249c1.1,1.2,2.2,2.4,3.3,3.7
		C45.7,252.4,45,252.2,44.7,251.8z M46.3,252.7c0.3-0.1,0.6-0.1,0.9-0.2c0.3,0.5,0.5,1.1,0.8,1.7C46.6,254.1,45.9,253.5,46.3,252.7
		L46.3,252.7z M150.2,294v-0.3c1.9-0.2,3.7-0.4,5.6-0.6v0.3C153.9,293.7,152.1,293.9,150.2,294L150.2,294z M175.4,291.4
		c-1.4,0.3-2.9,0.5-4.3,0.7c-0.5,0.1-1.1,0.6-1.3-0.3c-0.2,0.1-0.4,0.1-0.6,0.2c0.5,1.5,1.7,0.3,2.7,0.9c-2.2,0.3-4.3,0.5-6.4,0.8
		v-0.2c0.6-0.1,1.3-0.2,1.9-0.3v-0.3c-1-0.1-2-0.2-3-0.2c-0.3,0-0.7,0.4-1,0.5c-0.4,0.1-0.8,0.2-1.3,0.2c-1.7,0.1-3.4,0.1-5,0.2
		c-0.1,0-0.3-0.1-0.4-0.1v-0.3c6.7-0.9,13.3-1.8,20-2.7c0.1,0.2,0.1,0.4,0.2,0.6C176.3,291.1,175.9,291.3,175.4,291.4L175.4,291.4z
		 M176.9,290.4c2.3-0.3,4.4-0.5,6.6-0.8C178.9,290.9,177.4,291.1,176.9,290.4L176.9,290.4z M89.8,88.4c3.2-4.4,6.5-8.8,9.7-13.3
		c1-1.3,1.8-2.7,2.8-4c0.3-0.4,0.7-0.6,1.2-1l-0.1-0.2c0.4-0.5,0.8-0.9,1-1.3c0.5-0.8,0.8-1.7,1.2-2.6c0.1-0.2,0.4-0.4,0.4-0.4
		c1.4,0.7,1.4-0.8,1.9-1.3c0.9-1,1.8-2.1,2.6-3.1c0.6-0.8,1.2-1.5,1.7-2.4c0.1-0.3-0.2-0.8-0.3-1.2h-0.3c0.3-0.2,0.6-0.5,0.9-0.7
		c0.1,0,0.1,0,0.2-0.1c0.6-0.9,1.2-1.8,1.8-2.6c1.2-1.6,2.5-3.2,3.9-4.6c-0.2,0.5-0.4,1-0.6,1.4c0.1,0,0.1,0.1,0.2,0.1
		c1.2-1.6,2.5-3.1,3.7-4.7c-0.1-0.1-0.2-0.2-0.3-0.2c-0.5,0.5-0.9,1-1.4,1.5c-0.1-0.1-0.2-0.2-0.3-0.2c1-1.3,2-2.6,3-4.1
		c0.2,0.3,0.4,0.7,0.8,1.5c0.4-1,0.8-1.7,1.1-2.4c-0.3,0.3-0.7,0.6-1,0.9l-0.3-0.3l1.8-2.7c1.9-2.7,3.8-5.5,5.7-8.2
		c0.7-1,1.6-1.8,2.2-2.8c1.9-3.8,4.9-6.8,7.2-10.3c0.5-0.7,1.2-1.3,1.8-1.9c0.5-0.6,0.9-0.4,1.3,0.1c2.7,3.4,5.4,6.9,8.1,10.3
		c2,2.5,4,4.9,5.9,7.5c2.3,3.2,4.5,6.4,6.8,9.6c2.6,3.7,5.2,7.4,7.7,11.2c3.8,5.6,7.4,11.2,11.2,16.8c2.8,4.1,5.6,8.1,8.3,12.2h-5.1
		c-4.7-0.1-9.5-0.5-14.2-0.3c-6.4,0.3-12.9,1-19.3,1.5c-8.1,0.7-16.3,0.8-24.4,0.8c-2.9,0-5.8,0.4-8.7,0.6
		c-3.5,0.2-6.9,0.4-10.4,0.5c-4.1,0.2-8.1,0.3-12.2,0.4C94.7,88.5,92.3,88.4,89.8,88.4L89.8,88.4z M204.5,134.4v0.9
		c-0.1,0-0.2,0.1-0.4,0.1c-0.4-1.4-0.8-2.9-1.3-4.3c-1-2.9-2.1-5.8-3.9-8.4c-2-2.8-3.8-5.7-5.8-8.6c-0.5-0.7-1.2-1.3-1.8-1.9
		c-2.1-2.3-4.2-4.7-6.9-6.4c-4-2.5-8.2-4.6-12.5-6.4c-1.2-0.5-2.4-1.1-3.5-1.8h2.4l17.1-0.3c3.7-0.1,7.3-0.1,11-0.3
		c0.9,0,1.4,0.3,1.9,1.1c0.9,1.5,1.8,3,2.8,4.5c0.1,0.2,0.3,0.5,0.3,0.8c0,2.2,0,4.5,0.1,6.7c0.1,2.3,0.3,4.5,0.4,6.8
		c0,2.3-0.2,4.7-0.1,7.1C204.3,127.4,204.4,130.9,204.5,134.4L204.5,134.4z M96.9,100.9c4.7-0.2,9.2-0.5,13.8-0.7
		c3.6-0.2,7.3-0.3,10.9-0.5c1.5-0.1,2.9-0.2,4.4,0c-1.6,0.8-3.2,1.6-4.6,2.6c-1.8,1.2-3.5,2.8-5.3,4.1s-3.4,2.9-4.9,4.6
		c-1.9,2.3-4,4.3-6,6.5c-1.4,1.6-3,3.1-4.2,4.8c-1.7,2.2-3.2,4.6-4.8,7.1C96.7,119.9,97.3,110.5,96.9,100.9L96.9,100.9z
		 M162.2,197.1c-3.2,0.8-6.5,1.7-9.8,2.1c-2.8,0.4-5.7,0.3-8.6,0.3c-2.6,0-5.1-0.1-7.7-0.3c-2.9-0.3-5.8-0.6-8.6-1.9
		c-2.4-1.1-4.9-2.1-7.3-3.3c-2.4-1.2-4.8-2.6-6.6-4.8c-1.3-1.6-3.1-2.9-4.7-4.3c0.3,1.2,1,2.2,2.1,2.9c-0.5,0.6-1.2,0.3-2.2-1.3
		c-0.3,0.2-0.6,0.3-0.8,0.4c0.3-0.7,0.6-1.4,0.9-2c-0.4-0.8-0.9-1.7-1.3-2.5c-0.8-1.3-1.6-2.7-2.3-4c-0.2-0.3-0.2-0.6-0.4-0.9
		c-0.5-0.6-1-1.2-1.4-1.8c-0.8-1.2-1.5-2.5-2.5-3.7c0,0.3,0.1,0.6,0.1,1c-0.1,0-0.2,0.1-0.2,0.1l-2.1-5.1c-0.1,0-0.1,0-0.2,0.1
		l1.8,6.6c-0.1,0-0.2,0.1-0.3,0.1c-0.3-0.4-0.6-0.8-0.8-1.3c-0.2-0.8-0.8-0.8-1.3-0.5c-0.3,0.2-0.5,0.9-0.4,1.2
		c0.7,1.7,1.5,3.4,2.3,5.1c0.2,0.6,0.4,1.1,0.7,1.7c0.1,0.2,0.4,0.4,0.4,0.7c0.4,0.8,0.7,1.6,1.2,2.3c0.9,1.2,1.9,2.4,2.8,3.6
		c0.9,1.2,1.7,2.5,2.5,3.7c0.1,0.2,0.4,0.2,0.5,0.3c0.5,1.5,2.2,2.6,3.4,2c0.3,2.3,2.8,3.1,3.8,5.3c-1-0.4-1.9-0.8-2.9-1.3
		c-0.1,0.1-0.1,0.2-0.2,0.4c1.2,0.6,2.4,1.2,3.5,1.9c1,0.6,2,1.2,2.9,1.9c1.2,1.1,2.6,1.7,4.3,2.1c-0.1-0.3-0.2-0.4-0.2-0.4
		c2.8,1.3,5.7,2.7,7.9,3.8c-10.4,0.2-21.5,0.4-33,0.6c0-1.9-0.1-3.7-0.1-5.6c0-0.8,0.2-1.5,0.1-2.3c-0.3-4.6-0.3-9.2-0.9-13.7
		c-0.6-4.8-0.6-9.5-0.5-14.3c0.1-2.6-0.1-5.3-0.2-7.9c0-3.5,0-6.9,0.1-10.4c0-0.5,0.2-0.9,0.4-1.4h0.3c0.1,0.2,0,0.5,0.2,0.6
		c0.3,0.3,0.8,0.8,1,0.7c0.6-0.4,1.5-0.8,1.7-1.4c0.5-1.2,0.7-2.5,0.7-3.7c0-0.9,0.4-1.5,0.8-2.1c0.2-0.3,0.3-0.6,0.5-1
		c-0.4-0.3-0.8-0.5-1.3-0.9c0.4-1.1,0.3-2.4,1.8-3c0.2-0.1,0.2-0.6,0.3-0.9c0.1-0.8,0.2-1.7,0.3-2.5c0.2,0.3,0.3,0.4,0.5,0.6
		c0.1-0.1,0.1-0.2,0.2-0.3c0-0.4-0.1-1.2,0-1.2c1.2-0.2,0.7-1.5,1.3-2.1c0.1-0.1-0.1-0.4-0.1-0.6c0-0.2,0-0.5,0.1-0.5
		c1.4-0.3,1.2-1.8,2.1-2.5c0.3-0.2,0.4-0.5,0.8-1c0.8,1.4-0.6,2.1-0.7,3.1c1.7-1,2.2-3.4,1.2-4.1c0.4-0.3,0.8-0.7,1.1-1.1
		c1.1-1.2,2.3-2.3,3.3-3.5c0.7-0.9,1.1-2,1.8-2.9c0.4-0.5,1.2-0.9,1.8-1.2c1.8-1,3.5-2.1,4.6-3.8c0.2-0.2,0.5-0.4,0.8-0.6
		s0.9-0.2,1-0.5c0.1-0.2-0.2-0.7-0.4-1c0.4-0.2,0.8-0.6,1.6-1c-0.3,0.6-0.4,1-0.6,1.4l0.5,0.5c0.9-0.7,2.3-1.5,3.2-2.1
		c0-0.1-0.5-0.5-0.5-0.5c-0.6,0.3-1.5,0.8-2.4,1.2c0.2-0.3,0.2-0.5,0.3-0.6c1.4-0.9,2.8-1.8,4.3-2.5c3.5-1.6,7-3.2,10.5-4.7
		c0.6-0.3,1.4-0.1,2.1-0.1c0.3,0,0.5,0,0.8-0.1c1.6-0.5,3.2-1,4.8-1.4c0.7-0.2,1.5-0.3,2.2-0.3c3,0.1,6,0.1,9,0.3
		c1.3,0.1,2.5,0.4,3.7,0.8c1.5,0.5,3,1.2,4.5,1.9c1.7,0.9,3.3,1.9,4.9,3c2.9,1.9,5.6,4,8.5,5.7c2.8,1.7,5,4,6.8,6.6
		c2.2,3.1,4.7,5.9,5.7,9.7l1.5,6.6c0.3,1.2,1,2.4,0.7,3.8c-0.5,2.5-0.9,5.1-1.3,7.6c-0.2,1-0.4,2-0.3,3c0.2,3.1-1,5.8-2.2,8.6
		c-0.4,0.9-1,1.8-1.5,2.8c0.2,0.2,0.5,0.3,0.8,0.4l0.9-1.8c0.1,0,0.1,0,0.2,0.1c-0.5,1.4-0.9,2.9-1.4,4.3c-1.2,3.1-2.4,6.3-3.9,9.3
		c-0.8,1.7-2.2,3.1-3.2,4.7c-1,1.4-1.8,2.9-2.8,4.2c-0.9,1.1-1.8,2.2-3,3c-2.7,2-5.5,4-8.4,5.6C166.3,196.1,164.2,196.7,162.2,197.1
		L162.2,197.1z M108.9,191.8l-0.1,0.1c-0.2-0.1-0.5-0.2-0.7-0.4l-2.4-3.6c-0.2-0.3-0.3-0.6-0.2-1
		C106.6,188.6,107.7,190.2,108.9,191.8L108.9,191.8z M171.1,205.5c4.5-1.9,8.2-4.6,11.6-7.7c0.5-0.5,1-1,1.6-1.4
		c4.2-2.6,7.3-6.2,10.1-10.2c3.2-4.6,5.3-9.8,7.9-14.7c0.2-0.4,0.4-0.7,0.6-1.1c-0.2,11.4,1.1,22.6,2.6,33.9
		C194.2,204.7,182.7,205.1,171.1,205.5L171.1,205.5z M272.4,202.5c-0.1,0.2-0.3,0.4-0.4,0.6c-0.1-0.2-0.1-0.5-0.2-0.9
		c-0.6,1.6-1.9,0.8-2.8,0.8c-5.4,0.1-10.9,0.1-16.3,0.1c-5.2,0-10.5,0-15.7,0.1c-1.7,0-3.5,0.4-5.2,0.5c-4.1,0.2-8.2,0.3-12.3,0.4
		c-0.3,0-0.6-0.5-1.1-0.9c-0.2,0.3-0.4,0.6-0.6,0.9c-0.1-0.2-0.3-0.4-0.5-0.7c-0.1,0.3-0.2,0.6-0.3,0.8h-0.3
		c-0.2-1.4-0.6-2.7-0.6-4.1c0-3,0.3-6,0.4-9c0.1-1.4,0-2.7,0-4c0.4,0.3,0.7,0.5,1.1,0.8c0.2-0.4,0.4-0.7,0.6-1c0,0-0.2-0.1-0.4-0.3
		c0.2-0.1,0.4-0.3,0.4-0.4c0.1-0.3,0.3-0.6,0.3-0.8c0-0.7-0.2-1.3-0.3-1.9c0.1,0,0.2,0,0.3-0.1l0.6,3h0.3c-0.4-0.7,0.9-1.3-0.2-2.1
		c-0.1-0.1,0.1-0.7,0.1-1c-0.3-0.6-0.5-1.2-0.8-2c0.1-0.1,0.4-0.2,0.7-0.3c-0.4-0.2-0.7-0.4-1-0.5c1-0.9,1-1.4,0.1-2.4
		c0.2-0.1,0.4-0.1,0.4-0.2c0-0.9,0-1.8-0.2-2.7c-0.2-1,0.3-2.2-1.2-2.8c0.1,0.3,0.2,0.6,0.4,0.8c0,0-0.3,0.1-0.6,0.3
		c-1.3-1.2-0.5-2.8-0.8-4.6c0.7,0.2,1.2,0.4,1.7,0.6c-0.2-0.7-0.7-1.5-1-2.4h-0.4v-6.6c0,0.1,0.7,0.1,1.1,0.2c0-0.1,0.1-0.2,0.1-0.3
		c-0.3-0.4-0.7-0.8-1.1-1.3l0.2-0.2c-0.8-1-0.4-2.4-0.4-2.7v-7c1,1-0.5,2.3,1,2.9v-1h-0.1c-0.1-1.5-0.1-3-0.2-4.5H217
		c-0.1,0.2-0.1,0.3-0.2,0.5h-0.2l0.6-23.9c1,1.3,2.1,2.5,2.8,3.8c2.3,4.2,5.3,7.8,8.1,11.6c2.4,3.3,4.6,6.9,6.8,10.3
		c2.7,4.1,5.3,8.2,8,12.3c2,3.1,4.1,6.2,6.2,9.2c1.9,2.7,3.9,5.3,5.9,7.9c1.7,2.3,3.5,4.6,5.2,6.9c2,2.8,4,5.6,6,8.3
		c1,1.4,2.1,2.8,3.2,4.2c0.6,0.8,1.5,1.4,2.1,1.9c-0.1,0-0.2,0-0.4-0.1c0.3,0.4,0.5,0.7,0.7,0.9C272.9,201.1,273,201.7,272.4,202.5
		L272.4,202.5z M277.5,177.5v-0.7C277.5,177,277.6,177.3,277.5,177.5L277.5,177.5z M280.9,133.4c-0.1,0-0.7-0.6-0.8-0.7
		c-0.1,0.3,0,0.6-0.2,1c-0.1-0.3-0.8-0.2-0.8-0.5c-0.1,1.4,0.6,2.8,0.5,4.2c0.3-0.2,1.5-0.3,1.8-0.6c0.1,0.1,0.3,0.2,0.4,0.2
		c-2,1.5-1.5,3-0.6,4.7c0.2,0.4,0.8,1.2,0.2,2c-0.2,0.2,0.1,0.8,0.2,1.3h0.3v0.2l-0.9,0.3c-0.2-0.3-1.4-0.9-1.4-1.4v5.1
		c1,0.3,1,1.7,1.4,2.4c0.2-0.2,0.3-0.5,0.4-0.8l0.1,0.1c-0.1,0.6-0.2,1.2-0.4,1.8c-0.2,0.9-0.4,1.7-0.5,2.6c0,0.1,0.2,0.3,0.2,0.4
		c-1.1,2.5-0.5,5.3-0.9,7.9c-0.3,1.9,0,3.9-0.2,5.9c-0.2,1.7-0.6,3.5-1,5.2c-0.1,0.3-0.3,0.4-0.8,0.6c0.2-1.2,0.1-2-0.1-3.1
		c-0.1,0-1.4-0.7-1.5-0.7c0,1.4,0.8,3.3,1.1,4.9c-0.3-0.1-1.5-0.8-1.6-0.8c-0.2,1.2-0.2,2.8-0.3,4.1c-0.1,1-1,1.9-1.1,3
		c0,0.6,0.7,1,0.6,2h0.8c0-2,0.9-3.8,0.9-5.9h0.3c0.1,0.2,0.4,0.4,0.3,0.5c-0.2,1.1-0.6,2.3-0.5,3.4c0,0.6,0.5,1.2,0.3,1.9
		c-0.2,0.6-0.3,1.2-0.4,2.1c-0.1-0.5-0.2-0.7-0.2-1c-0.1,0-1-0.1-1.1-0.1c-0.1,0.6,0.7,1.2,0.6,1.7c-0.1,0.1-0.2,0.1-0.4,0.2
		l-3.3-4.8c-2.6-3.8-5.2-7.6-7.8-11.5c-0.7-1-1.3-2-1.8-3c-3.1-5.3-6.5-10.4-10.3-15.3c-2.9-3.7-5.2-7.7-7.9-11.6
		c-2.5-3.7-5-7.3-7.5-11c-0.9-1.2-2-2.3-2.8-3.6c-2.6-4.1-4.9-8.3-7.5-12.4c-2.2-3.4-4.6-6.7-6.9-10c-0.8-1.1-1.6-2.3-2.4-3.5
		c-0.1-0.2-0.2-0.4-0.2-0.7c-0.2-2.2-0.4-4.4-0.5-6.5c0-2,0.2-4,0.2-6.1v-1.8c0-0.5,0.1-0.9,0.1-1.4c0.1-0.1,0.2-0.3,0.3-0.4
		c-2.9,0-5.9-0.1-8.8,0c-1.9,0.1-2.9-0.7-4.2-2.1c-3.8-4.3-6.6-9.2-9.9-13.8c-3.1-4.4-6.3-8.7-9.5-13c-2.6-3.5-5.2-6.9-7.8-10.4
		c-2.9-4-5.7-8-8.7-12c-3.6-4.8-7.3-9.6-11-14.4c-1.7-2.2-3.6-4.3-5.5-6.6c1.3,0.2,2.5,0.4,3.7,0.5l4.8,0.3c3.6,0.3,7.2,0.5,10.8,1
		c3,0.4,6,1,9.1,1.5c6.6,1.1,13.1,2.9,19.4,5c3.7,1.2,7.3,2.8,10.9,4.3c8.1,3.3,15.8,7.3,23.4,11.5c2.4,1.3,3.8,3.4,5.6,5.3
		c2.6,2.7,5.2,5.4,7.7,8.2c2.9,3.3,5.6,6.7,8.4,10.1c2.5,3,5.1,6,7.6,9c0.8,0.9,1.4,2,2.1,3c1.6,2.4,3.4,4.7,4.8,7.3
		c1,1.9,1.6,4.1,2.3,6.2c1,3.1,2,6.1,3,9.2c0.7,2.3,1.3,4.7,1.8,7.1c0.4,1.6,0.3,3.3,0.8,4.9c0.6,2.1,0,4.4,0.6,6.5
		c0.1,0.2,0.2,0.5,0.3,0.7c0.4,0.4,0.7,0.8,0.1,1.4c-0.1,0.1-0.1,0.5,0,0.8c0.2-0.2,0.3-0.4,0.5-0.7c0,0.2,0.1,0.3,0.1,0.4
		c0,0.4-0.1,0.8,0,1.2c0,0.2,0.2,0.5,0.3,0.7c0.2-0.2,0.4-0.3,0.8-0.6c0.9,3.4,1,6.8,1,10.3c0,3.3,0.6,6.6-0.8,9.8
		C281.3,135.4,280.6,134.4,280.9,133.4L280.9,133.4z"/>
	<path class="st0" d="M217.1,172.3c0.1,0,0.2,0.1,0.2,0.1L217.1,172.3C217.2,172.2,217.2,172.2,217.1,172.3L217.1,172.3z
		 M232.8,271.2c-1.1,0.8-2.2,1.5-3.6,1.8c-0.1-0.1-0.1-0.2-0.2-0.3c1.1-0.7,2.3-1.4,3.4-2.1C232.5,270.8,232.7,271,232.8,271.2
		L232.8,271.2z M45.5,135.6c1.1-1.4,2.2-2.8,3.4-4.2c0.1,0.1,0.9,0.3,1,0.4c-1.1,1.4-2.6,3.3-3.7,4.8
		C46,136.4,45.7,135.7,45.5,135.6L45.5,135.6z M17.1,184.6c-0.8-1.7-1.6-3.5-2.4-5.2c0.3-0.2,0.6-0.3,0.9-0.4
		c1.1,1.6,1.6,3.5,2.4,5.2C18,184.2,17.2,184.6,17.1,184.6L17.1,184.6z M42.6,136.6c-0.6,0.9-1.2,1.9-1.8,2.8
		c-0.1-0.1-1.2,0.4-1.3,0.3c0.6-0.9,2.1-2.5,2.7-3.4C42.3,136.4,42.4,136.5,42.6,136.6L42.6,136.6z M222.2,275.3
		c0.1,0,0.1-0.1,0.2-0.1c0.7,0.1,1.5,0.2,2.3,0.2C223.3,276.3,222.5,276.2,222.2,275.3L222.2,275.3z M42.8,140.8
		c0.1-0.3,0.3-0.6,0.5-0.9c0.2,0,0.5-0.1,0.5-0.1c0.4-0.7,0.4-1.2,0.8-1.8c-0.1-0.1-0.2-0.1-0.3-0.2c-0.6,0.4-1.2,0.9-1.8,1.3
		c0.2,0.2,0.2,0.3,0.2,0.5c-0.8-0.1-1.1,0.3-1.5,1.4c-0.1,0.3-0.6,0.4-1.1,0.8c-0.1,0.2-0.2,0.7-0.4,1.2l0.1,0.1
		c-0.2,0.2-0.5,0.3-0.5,0.3c-0.6,0.6-1.3,1.1-1.9,1.7c-0.1,0.3-0.2,0.6-0.2,0.9c0.7-0.7,1.9-2,2.8-2.8l0.1,0.1
		c0.4-0.6,0.7-1.2,1.1-1.8c0.1,0.1,0.1,0.2,0.2,0.3c-0.3,0.8-0.6,1.7-0.9,2.5c-0.2,0.1-0.5,0.3-0.5,0.2c-0.4,0.3-0.7,0.7-1.1,1
		l-1.8,1.2c-1,0.9-2,1.7-3.1,2.6c-0.7,1.1-1.4,2.1-2.2,3.4c1.2-0.3,1.5,0.2,1.4,1.2c1.4,0.2,1.5-0.9,1.9-1.7
		c0.1-0.2,0.2-0.6,0.4-0.7c0.9-0.8,1.9-1.5,2.9-2.3c0.2-0.2,0.2-0.6,0.2-0.9c0-0.1-0.5-0.1-0.8-0.2c0.9-1,2.2-2.7,3.1-3.8
		c0.5-0.3,1-0.7,1-1c-0.1-1.1,0.6-1.4,1.4-1.8C42.9,141.2,42.8,140.9,42.8,140.8L42.8,140.8z"/>
	<path class="st0" d="M44.8,139.7c-0.4,0.7-0.8,1.3-1.2,2l-0.6-0.3c-0.4,2.3-1.8,4.3-3.2,4.7c0.4,0.2,0.8,0.4,1.1,0.3
		c0.3-0.1,0.5-0.6,0.7-0.9l2.7-3.9l0.9-1.5L44.8,139.7L44.8,139.7z M11.5,183.6c0.5,0,1,0.1,1.6,0.1c0-0.4,0.5-0.3,0.5-0.7h0.3
		c0,0.5,0.1,0.9,0.1,1.4h-2.1C11.8,184.3,11.4,183.7,11.5,183.6L11.5,183.6z M10.7,179c-0.3-0.3-0.8-0.6-0.8-0.9
		c-0.1-0.4,0.2-0.9,0.5-1.4c0.2,0.7,0.3,1.3,0.5,2C10.8,178.8,10.7,178.9,10.7,179L10.7,179z M13.2,172.6c0.4,1,0.8,2.1,1.2,3.1
		c-0.3,0.1-0.6,0.2-0.8,0.4c-0.4-1-0.9-2.1-1.3-3.1C12.6,172.8,12.9,172.7,13.2,172.6L13.2,172.6z M235.6,268.3
		c0.5-0.2,1.1-0.3,1.9-0.5c-0.9,0.7-1.6,1.2-2.2,1.8c-0.1-0.1-0.2-0.2-0.3-0.2C235.2,269,235.4,268.7,235.6,268.3L235.6,268.3z
		 M112.8,56.8c0.6-0.4,1.1-0.7,1.7-1.1l0.2,0.2c-0.6,0.8-1.1,1.6-1.8,2.6c-0.1-0.7-0.1-1.1-0.2-1.6
		C112.6,56.9,112.7,56.9,112.8,56.8L112.8,56.8z M142.1,107.5c0.9-0.4,1.8-0.8,2.9-1.3c-0.1,0.6-0.1,1-0.1,1.4
		c-0.3-0.1-0.7-0.2-1-0.2c-0.6,0.1-1.7,0.9-2.2,1C141.6,108.4,142.1,107.6,142.1,107.5L142.1,107.5z M217.1,192.3
		c0.2,1,2.1,1.5,0.2,2.5c0.3,0.2,0.6,0.3,0.9,0.5c0,0.2-0.1,0.3-0.2,0.4c-0.2,0.1-0.6,0.3-0.8,0.2c-0.1,0-0.3-0.4-0.3-0.6
		C216.9,194.4,217,193.5,217.1,192.3L217.1,192.3z"/>
</g>
<path class="st2" d="M855.7,202.7l1.2-29.5h12.2l3.1,18.7c5,1.9,10,2.8,15,2.8c10,0,16.9-3.3,20.6-9.8c1.3-2.2,1.9-5.1,1.9-8.6
	s-1.1-6.8-3.2-9.6c-2.2-2.8-5.7-5.5-10.7-7.9c-4.9-2.4-9.8-4.7-14.7-6.6c-4.8-2-9.2-4.3-13.1-7.1c-3.9-2.7-7.1-6.1-9.6-10.1
	s-3.8-8.8-3.8-14.5c0-5.6,1-10.4,3.1-14.2c2-3.8,4.8-7.1,8.3-9.8c7.3-5.6,16.3-8.4,26.9-8.4c10.3,0,20.1,1.7,29.5,5.2l2.4,30H913
	l-7.7-18.9c-3.5-1.2-7.9-1.7-13.2-1.7s-9.8,1.2-13.5,3.7c-3.7,2.4-5.5,6.2-5.5,11.2c0,5.8,2.9,10.6,8.7,14.3
	c2.6,1.7,5.4,3.3,8.6,4.6c3.1,1.3,6.8,2.9,10.9,4.8c4.1,1.9,8,4.1,11.6,6.6c3.6,2.6,6.5,5.2,8.7,8c4.2,5.2,6.3,11.2,6.3,18
	s-1.1,12.3-3.4,16.7c-2.3,4.4-5.3,7.9-9.2,10.7c-7.2,5.4-16.8,8-28.7,8S864.5,207.1,855.7,202.7L855.7,202.7z M767.1,202.7l1.2-29.5
	h12.2l3.1,18.7c5,1.9,10,2.8,15,2.8c10,0,16.9-3.3,20.6-9.8c1.3-2.2,1.9-5.1,1.9-8.6s-1.1-6.8-3.2-9.6c-2.2-2.8-5.7-5.5-10.7-7.9
	s-9.8-4.7-14.7-6.6c-4.8-2-9.2-4.3-13.1-7.1c-3.9-2.7-7.1-6.1-9.6-10.1s-3.8-8.8-3.8-14.5c0-5.6,1-10.4,3.1-14.2
	c2-3.8,4.8-7.1,8.3-9.8c7.3-5.6,16.3-8.4,26.9-8.4c10.3,0,20.1,1.7,29.5,5.2l2.4,30h-12.1l-7.7-18.9c-3.5-1.2-7.9-1.7-13.2-1.7
	s-9.8,1.2-13.5,3.7c-3.7,2.4-5.5,6.2-5.5,11.2c0,5.8,2.9,10.6,8.7,14.3c2.6,1.7,5.4,3.3,8.6,4.6c3.1,1.3,6.8,2.9,10.9,4.8
	c4.1,1.9,8,4.1,11.6,6.6c3.6,2.6,6.5,5.2,8.7,8c4.2,5.2,6.3,11.2,6.3,18s-1.1,12.3-3.4,16.7c-2.3,4.4-5.3,7.9-9.2,10.7
	c-7.2,5.4-16.8,8-28.7,8S775.9,207.1,767.1,202.7L767.1,202.7z M753.1,201.4c-7.3,5.2-17.6,7.9-30.9,7.9c-16.1,0-29.8-5.1-41.2-15.4
	c-12.5-11.3-18.7-26.1-18.7-44.4c0-19.3,5.9-34.7,17.8-46.1c10.8-10.4,24.6-15.5,41.2-15.5c7.5,0,16.1,1.1,25.9,3.3l3.3,31.8h-11.9
	l-6.8-18.9c-2.2-0.8-6.1-1.2-11.5-1.2c-5.5,0-10.7,1.2-15.8,3.7c-5.1,2.4-9.3,5.7-12.8,9.8c-7.3,8.6-11,19.1-11,31.4
	c0,13.4,4,24.5,12.1,33.2c8.2,8.8,19,13.3,32.5,13.3c5,0,9.6-0.8,13.8-2.3s7.2-3,9.1-4.4C748.1,187.6,753.1,201.4,753.1,201.4z"/>
<path class="st3" d="M382.6,193.4c2.9,0.6,11.4,1.7,25.3,3.5l-0.5,11.7h-51.7l-1.7-12.2l11.2-2.4v-92l-11-0.9V87.9H391
	c16.2,0,28.4,3.7,36.7,11c7.5,6.8,11.2,16,11.2,27.6c0,13.6-4.6,23.8-13.8,30.6c-8.2,5.9-19.6,8.9-34.4,8.9h-8v27.4L382.6,193.4
	L382.6,193.4z M420.5,126.3c0-15.6-10.6-23.4-31.8-23.4h-6.1v48h7.3c10.7,0,18.6-2.4,23.8-7.3C418.2,139.3,420.5,133.5,420.5,126.3z
	 M471,188.9c3.7,4.8,8.6,7.3,14.7,7.3s11-2.4,14.8-7.1s5.8-11.9,5.8-21.6s-1.8-17.2-5.5-22.6c-3.7-5.4-8.6-8.1-14.9-8.1
	c-6.6,0-11.8,2.9-15.4,8.6c-3.4,5.5-5.1,12.9-5.1,22.3C465.4,177,467.2,184.1,471,188.9L471,188.9z M448.8,165.8c0-6.8,1-12.8,3-18
	s4.7-9.7,8.2-13.3c6.8-7.2,15.4-10.8,25.9-10.8c10.7,0,19.6,3.8,26.6,11.5s10.5,18,10.5,30.9c0,13.5-3.7,24.2-11.2,32
	c-6.9,7.5-15.5,11.2-25.9,11.2c-10.8,0-19.7-4-26.6-11.9C452.3,189.6,448.8,179.1,448.8,165.8z M565,123.7c3.7,0,7.2,0.5,10.3,1.6
	c3.1,1,5.9,2.4,8.2,4c4.4,3,7.9,6.9,10.3,11.7l-17.8,6.8l-4-8.9c-2.3-1.2-4.8-1.7-7.5-1.7s-5.1,0.8-7.3,2.4
	c-2.2,1.6-3.3,3.9-3.3,6.9s1.5,5.5,4.4,7.4s6.9,3.9,12.1,6c5.1,2.1,9.1,4.1,11.8,5.9c2.7,1.9,4.9,3.8,6.4,5.9
	c2.9,3.8,4.4,8.1,4.4,12.8s-0.9,8.6-2.6,11.6c-1.7,3-4,5.5-6.8,7.5c-5.5,3.7-12.1,5.6-19.9,5.6c-6.5,0-12.9-1.8-19-5.4
	c-5.7-3.5-9.4-7.8-11.2-12.9l18-6.8l4.2,10.1c2.7,1.2,5.2,1.7,7.4,1.7c2.3,0,4.1-0.2,5.5-0.5c1.4-0.4,2.7-0.9,3.8-1.6
	c2.7-1.7,4-4.3,4-7.7c0-4.3-2.7-7.6-7.9-9.9c-5.3-2.3-9.8-4.3-13.6-6.2s-7-3.8-9.5-5.9c-5.2-4.4-7.9-10.3-7.9-17.5
	c0-7.1,2.8-12.8,8.6-17.1C551.1,125.7,557.5,123.7,565,123.7L565,123.7z M650.6,191c0.2,0.8,1.5,4.7,3.7,11.5c-1.6,1.5-4,3-7.2,4.5
	c-3.1,1.5-7.2,2.3-12.2,2.3s-9.2-1.5-12.7-4.5c-3.4-3-5.2-8-5.2-14.8v-53.1h-14.3l-2.4-11.4l1.2-1.7H617V94.5l14-3.3l0.9,2.6v29.9
	H650c0.6,0,0.9,0.3,0.9,1v12.1h-19v50.1c0,3.7,0.6,6.1,1.7,7.3c1.1,1.1,2.5,1.7,4.2,1.7s3.1-0.2,4.3-0.5s2.3-0.8,3.3-1.4
	C647.5,193,649.3,192,650.6,191L650.6,191z"/>
<path class="st0" d="M217.1,172.5c0.1,0,0.2,0.1,0.2,0.1L217.1,172.5C217.2,172.3,217.2,172.3,217.1,172.5L217.1,172.5z
	 M232.9,271.3c-1.1,0.8-2.2,1.5-3.6,1.8c-0.1-0.1-0.1-0.2-0.2-0.3c1.1-0.7,2.3-1.4,3.4-2.1C232.5,270.9,232.7,271.1,232.9,271.3
	L232.9,271.3z M45.5,135.7c1.1-1.4,2.2-2.8,3.4-4.2c0.1,0.1,0.9,0.3,1,0.4c-1.1,1.4-2.6,3.3-3.7,4.8
	C45.9,136.5,45.6,135.8,45.5,135.7L45.5,135.7z M17.1,184.8c-0.8-1.7-1.6-3.5-2.4-5.2c0.1-0.1,0.8-0.4,0.9-0.4
	c1.1,1.6,1.6,3.5,2.4,5.2C18,184.4,17.2,184.8,17.1,184.8L17.1,184.8z M42.6,136.7c-0.6,0.9-1.2,1.9-1.8,2.8
	c-0.1-0.1-1.2,0.4-1.3,0.3c0.6-0.9,2.1-2.5,2.7-3.4C42.3,136.5,42.4,136.6,42.6,136.7L42.6,136.7z M222.2,275.4
	c0.1,0,0.1-0.1,0.2-0.1c0.7,0.1,1.5,0.2,2.3,0.2C223.3,276.4,222.5,276.3,222.2,275.4L222.2,275.4z M42.7,140.9
	c0.1-0.3,0.3-0.6,0.5-0.9c0.2,0,0.5-0.1,0.5-0.1c0.4-0.7,0.4-1.2,0.8-1.8c-0.1-0.1-0.2-0.1-0.3-0.2c-0.6,0.4-1.2,0.9-1.8,1.3
	c0.2,0.2,0.2,0.3,0.2,0.5c-0.8-0.1-1.1,0.3-1.5,1.4c-0.1,0.3-0.6,0.4-1.1,0.8c-0.1,0.2-0.2,0.7-0.4,1.2l0.1,0.1
	c-0.2,0.2-0.5,0.3-0.5,0.3c-0.6,0.6-1.3,1.1-1.9,1.7c-0.1,0.3-0.2,0.6-0.2,0.9c0.7-0.7,1.9-2,2.8-2.8l0.1,0.1
	c0.4-0.6,0.7-1.2,1.1-1.8c0.1,0.1,0.1,0.2,0.2,0.3c-0.3,0.8-0.6,1.7-0.9,2.5c-0.2,0.1-0.5,0.3-0.5,0.2c-0.4,0.3-0.7,0.7-1.1,1
	l-1.8,1.2c-1,0.9-2,1.7-3.1,2.6c-0.7,1.1-1.4,2.1-2.2,3.4c1.2-0.3,1.5,0.2,1.4,1.2c1.4,0.2,1.5-0.9,1.9-1.7c0.1-0.2,0.2-0.6,0.4-0.7
	c0.9-0.8,1.9-1.5,2.9-2.3c0.2-0.2,0.2-0.6,0.2-0.9c0-0.1-0.5-0.1-0.8-0.2c0.9-1,2.2-2.7,3.1-3.8c0.5-0.3,1-0.7,1-1
	c-0.1-1.1,0.6-1.4,1.4-1.8C42.8,141.3,42.7,141,42.7,140.9L42.7,140.9z"/>
<path class="st0" d="M44.8,139.8c-0.4,0.7-0.8,1.3-1.2,2l-0.6-0.3c-0.4,2.3-1.8,4.3-3.2,4.7c0.4,0.2,0.8,0.4,1.1,0.3
	c0.3-0.1,0.5-0.6,0.7-0.9l2.7-3.9l0.9-1.5L44.8,139.8L44.8,139.8z M11.5,183.8c0.5,0,1,0.1,1.6,0.1c0-0.4,0.5-0.3,0.5-0.7h0.3
	c0,0.5,0.1,0.9,0.1,1.4h-2.1C11.8,184.5,11.4,183.9,11.5,183.8L11.5,183.8z M10.7,179.2c-0.3-0.3-0.8-0.6-0.8-0.9
	c-0.1-0.4,0.2-0.9,0.5-1.4c0.2,0.7,0.3,1.3,0.5,2C10.8,179,10.7,179.1,10.7,179.2L10.7,179.2z M13.2,172.8c0.4,1,0.8,2.1,1.2,3.1
	c-0.1,0-0.7,0.3-0.8,0.4c-0.4-1-0.9-2.1-1.3-3.1C12.4,173.1,13,172.8,13.2,172.8L13.2,172.8z M235.7,268.4c0.5-0.2,1.1-0.3,1.9-0.5
	c-0.9,0.7-1.6,1.2-2.2,1.8c-0.1-0.1-0.2-0.2-0.3-0.2C235.3,269.1,235.5,268.8,235.7,268.4z M112.8,57c0.6-0.4,1.1-0.7,1.7-1.1
	l0.2,0.2c-0.6,0.8-1.1,1.6-1.8,2.6c-0.1-0.7-0.1-1.1-0.2-1.6C112.6,57.1,112.7,57.1,112.8,57L112.8,57z M142.1,107.6
	c0.9-0.4,1.8-0.8,2.9-1.3c-0.1,0.6-0.1,1-0.1,1.4c-0.3-0.1-0.7-0.2-1-0.2c-0.6,0.1-1.7,0.9-2.2,1
	C141.6,108.5,142.1,107.7,142.1,107.6L142.1,107.6z M217.1,192.5c0.2,1,2.1,1.5,0.2,2.5c0.3,0.2,0.6,0.3,0.9,0.5
	c0,0.1-0.1,0.3-0.2,0.4c-0.2,0.1-0.6,0.3-0.8,0.2c-0.1,0-0.3-0.4-0.3-0.6C216.9,194.6,217,193.7,217.1,192.5L217.1,192.5z"/>
</svg>
