<?xml version="1.0" encoding="UTF-8" standalone="no"?>
<!DOCTYPE svg PUBLIC "-//W3C//DTD SVG 1.1//EN" "http://www.w3.org/Graphics/SVG/1.1/DTD/svg11.dtd">
<svg width="100%" height="100%" viewBox="0 0 55 55" version="1.1" xmlns="http://www.w3.org/2000/svg" xmlns:xlink="http://www.w3.org/1999/xlink" xml:space="preserve" xmlns:serif="http://www.serif.com/" style="fill-rule:evenodd;clip-rule:evenodd;stroke-linejoin:round;stroke-miterlimit:2;">
    <path d="M48,23.12L48,53L8,53L8,23.12L28.113,4L48,23.12Z" style="fill:rgb(181,237,255);fill-rule:nonzero;"/>
    <path d="M49.386,21.679C49.778,22.056 50,22.576 50,23.12L50,53C50,54.105 49.105,55 48,55L8,55C6.895,55 6,54.105 6,53L6,23.12C6,22.572 6.225,22.048 6.622,21.671L26.735,2.55C27.51,1.813 28.728,1.817 29.499,2.558L49.386,21.679ZM48,23.12L28.113,4L8,23.12L8,53L48,53L48,23.12Z" style="fill:rgb(99,0,0);"/>
    <path d="M47,8.451L47,22L42.234,17.5L40,15.5L40,8.451C40,7.65 40.459,7 41.026,7L45.974,7C46.541,7 47,7.65 47,8.451Z" style="fill:rgb(158,177,183);fill-rule:nonzero;"/>
    <path d="M47.792,23.837C47.059,24.153 46.208,24.002 45.627,23.454L40.88,18.972L38.666,16.99C38.242,16.611 38,16.069 38,15.5L38,8.451C38,7.686 38.216,6.908 38.668,6.27C39.116,5.637 39.92,5 41.026,5L45.974,5C45.974,5 45.974,5 45.974,5C47.08,5 47.885,5.637 48.332,6.27C48.784,6.908 49,7.686 49,8.451L49,22C49,22.799 48.525,23.52 47.792,23.837ZM45.974,7L41.026,7C40.459,7 40,7.65 40,8.451L40,15.5L42.234,17.5L47,22L47,8.451C47,7.65 46.541,7 45.974,7Z" style="fill:rgb(99,0,0);"/>
    <path d="M48,25.234L48,31L28,11.68L8,31L8,25.234L26.412,7.493L28,6L29.587,7.493L48,25.234Z" style="fill-opacity:0.06;fill-rule:nonzero;"/>
    <path d="M27.5,7.541L5.128,29L2,26.362L25.94,3.456L27.5,2L29.06,3.456L53,26.362L49.872,29L27.5,7.541Z" style="fill:rgb(234,71,86);fill-rule:nonzero;"/>
    <path d="M6.513,30.443C5.774,31.151 4.621,31.188 3.839,30.529L0.711,27.89C0.277,27.525 0.019,26.991 0.001,26.424C-0.017,25.857 0.207,25.309 0.617,24.917L24.558,2.011L24.576,1.994L26.135,0.538C26.904,-0.179 28.096,-0.179 28.865,0.538L30.424,1.994L30.443,2.011L54.383,24.917C54.793,25.309 55.017,25.857 54.999,26.424C54.981,26.991 54.723,27.525 54.289,27.89L51.161,30.529C50.379,31.188 49.226,31.151 48.487,30.443L27.5,10.313L6.513,30.443ZM27.5,7.541L49.872,29L53,26.362L29.06,3.456L27.5,2L25.94,3.456L2,26.362L5.128,29L27.5,7.541Z" style="fill:rgb(99,0,0);"/>
    <rect x="14" y="32" width="12" height="21" style="fill:rgb(201,117,35);fill-rule:nonzero;"/>
    <path d="M12,32C12,30.895 12.895,30 14,30L26,30C27.105,30 28,30.895 28,32L28,53C28,54.105 27.105,55 26,55L14,55C12.895,55 12,54.105 12,53L12,32ZM26,32L26,53L14,53L14,32L26,32Z" style="fill:rgb(99,0,0);"/>
    <rect x="33" y="32" width="10" height="11" style="fill:white;fill-rule:nonzero;"/>
    <path d="M31,32C31,30.895 31.895,30 33,30L43,30C44.105,30 45,30.895 45,32L45,43C45,44.105 44.105,45 43,45L33,45C31.895,45 31,44.105 31,43L31,32ZM43,32L43,43L33,43L33,32L43,32Z" style="fill:rgb(99,0,0);"/>
    <rect x="33" y="32" width="10" height="3" style="fill:rgb(201,117,35);fill-rule:nonzero;"/>
    <path d="M31,32C31,30.895 31.895,30 33,30L43,30C44.105,30 45,30.895 45,32L45,35C45,36.105 44.105,37 43,37L33,37C31.895,37 31,36.105 31,35L31,32ZM43,32L43,35L33,35L33,32L43,32Z" style="fill:rgb(99,0,0);"/>
    <path d="M24.091,43L21.909,43C21.407,43 21,42.552 21,42C21,41.448 21.407,41 21.909,41L24.091,41C24.593,41 25,41.448 25,42C25,42.552 24.593,43 24.091,43Z" style="fill:rgb(99,0,0);fill-rule:nonzero;"/>
    <path d="M27.5,24C29.433,24 31,22.433 31,20.5C31,18.567 29.433,17 27.5,17C25.567,17 24,18.567 24,20.5C24,22.433 25.567,24 27.5,24Z" style="fill:white;fill-rule:nonzero;"/>
    <path d="M33,20.5C33,23.538 30.538,26 27.5,26C24.462,26 22,23.538 22,20.5C22,17.462 24.462,15 27.5,15C30.538,15 33,17.462 33,20.5ZM31,20.5C31,22.433 29.433,24 27.5,24C25.567,24 24,22.433 24,20.5C24,18.567 25.567,17 27.5,17C29.433,17 31,18.567 31,20.5Z" style="fill:rgb(99,0,0);"/>
</svg>
