<svg xmlns="http://www.w3.org/2000/svg" viewBox="0 0 60 59.5"><defs><style>.cls-1{fill:#ffce00;}.cls-2{fill:#ffe780;}.cls-3{fill:#630000;}.cls-4{fill:#ffb000;}.cls-5{fill:#ffa9a9;}.cls-6{fill:#a30000;}</style></defs><title>icon_logout</title><g id="レイヤー_2" data-name="レイヤー 2"><g id="レイヤー_1-2" data-name="レイヤー 1"><rect class="cls-1" x="15.62" y="9.13" width="27.31" height="41.24" rx="2.53"/><rect class="cls-2" x="20.63" y="14.52" width="16.68" height="30.46"/><path class="cls-3" d="M37.31,46.25H20.63A1.27,1.27,0,0,1,19.36,45V14.52a1.27,1.27,0,0,1,1.27-1.27H37.31a1.26,1.26,0,0,1,1.26,1.27V45A1.26,1.26,0,0,1,37.31,46.25ZM21.89,43.72H36V15.78H21.89Z"/><path class="cls-3" d="M40.39,51.63H18.15a3.8,3.8,0,0,1-3.8-3.79V11.66a3.8,3.8,0,0,1,3.8-3.79H40.39a3.8,3.8,0,0,1,3.8,3.79V47.84A3.8,3.8,0,0,1,40.39,51.63ZM18.15,10.4a1.26,1.26,0,0,0-1.27,1.26V47.84a1.26,1.26,0,0,0,1.27,1.26H40.39a1.26,1.26,0,0,0,1.27-1.26V11.66a1.26,1.26,0,0,0-1.27-1.26Z"/><path class="cls-1" d="M29.4,56.31c0,1.39-1,2.22-2.19,1.83L3.32,50.5a3.52,3.52,0,0,1-2.18-3.22V12.22A3.52,3.52,0,0,1,3.32,9L27.21,1.36C28.42,1,29.4,1.8,29.4,3.19Z"/><path class="cls-4" d="M26.44,53,4.1,45.7A3.55,3.55,0,0,1,2,42.5l.06,5.37a3.55,3.55,0,0,0,2.07,3.2L26.5,58.39c1.12.37,2-.47,2-1.86l-.06-5.37C28.46,52.55,27.56,53.39,26.44,53Z"/><path class="cls-3" d="M27.79,59.5a3.11,3.11,0,0,1-.89-.14L3,51.72a4.79,4.79,0,0,1-3-4.44V12.22A4.79,4.79,0,0,1,3,7.78L26.9.14A2.62,2.62,0,0,1,29.44.6a3.32,3.32,0,0,1,1.09,2.59V56.31a3.3,3.3,0,0,1-1.09,2.59A2.5,2.5,0,0,1,27.79,59.5Zm0-57a.82.82,0,0,0-.26,0L3.63,10.21a2.31,2.31,0,0,0-1.36,2V47.28a2.31,2.31,0,0,0,1.36,2l23.9,7.64a.55.55,0,0,0,.54,0,.73.73,0,0,0,.19-.57V3.19a.73.73,0,0,0-.19-.57A.41.41,0,0,0,27.79,2.53Z"/><ellipse class="cls-3" cx="23.57" cy="29.75" rx="2.21" ry="2.85"/><path class="cls-5" d="M45.4,21.17a2.69,2.69,0,0,1,1.33.38l10.73,6.2a2.2,2.2,0,0,1,0,4L46.73,38a2.69,2.69,0,0,1-1.33.38A2.19,2.19,0,0,1,43.26,36V34.37a.55.55,0,0,0-.54-.55H36.35a3.06,3.06,0,0,1-3.07-3.07v-2a3.07,3.07,0,0,1,3.07-3.07h6.37a.55.55,0,0,0,.54-.54V23.55A2.19,2.19,0,0,1,45.4,21.17Z"/><path class="cls-6" d="M45.4,37.06c-.52,0-.87-.41-.87-1.11V34.37a1.82,1.82,0,0,0-1.81-1.81H36.35a1.81,1.81,0,0,1-1.81-1.81v-2a1.82,1.82,0,0,1,1.81-1.81h6.37a1.81,1.81,0,0,0,1.81-1.8V23.55c0-.7.35-1.11.87-1.11a1.43,1.43,0,0,1,.69.21l10.73,6.2a1,1,0,0,1,0,1.8l-10.73,6.2a1.33,1.33,0,0,1-.69.21m0,2.53h0a3.88,3.88,0,0,0,2-.55l10.73-6.2a3.45,3.45,0,0,0,0-6.18l-10.73-6.2a3.88,3.88,0,0,0-2-.55A3.45,3.45,0,0,0,42,23.55v.86H36.35A4.35,4.35,0,0,0,32,28.75v2a4.35,4.35,0,0,0,4.34,4.34H42V36a3.44,3.44,0,0,0,3.4,3.64Z"/></g></g></svg>