<?xml version="1.0" encoding="UTF-8" standalone="no"?>
<!DOCTYPE svg PUBLIC "-//W3C//DTD SVG 1.1//EN" "http://www.w3.org/Graphics/SVG/1.1/DTD/svg11.dtd">
<svg width="100%" height="100%" viewBox="0 0 55 55" version="1.1" xmlns="http://www.w3.org/2000/svg" xmlns:xlink="http://www.w3.org/1999/xlink" xml:space="preserve" xmlns:serif="http://www.serif.com/" style="fill-rule:evenodd;clip-rule:evenodd;stroke-linejoin:round;stroke-miterlimit:2;">
    <path d="M44.909,16.667L38.326,10.084C37.115,8.873 37.115,6.909 38.326,5.698L41.634,2.392C43.44,0.586 46.395,0.587 48.2,2.393L52.601,6.795C53.479,7.671 53.962,8.837 53.962,10.078C53.962,11.316 53.479,12.482 52.601,13.36L49.294,16.667C48.083,17.878 46.12,17.878 44.909,16.667Z" style="fill:rgb(234,71,86);fill-rule:nonzero;"/>
    <path d="M53.962,10.078C53.962,8.837 53.479,7.671 52.601,6.795L50.4,4.593L41.617,13.375L44.909,16.667C46.12,17.878 48.083,17.878 49.294,16.667L52.601,13.36C53.479,12.482 53.962,11.316 53.962,10.078Z" style="fill:rgb(217,37,54);fill-rule:nonzero;"/>
    <path d="M40.537,21.039L33.954,14.455C32.743,13.244 32.743,11.281 33.954,10.07L38.325,5.699L49.294,16.667L44.923,21.039C43.712,22.25 41.748,22.25 40.537,21.039Z" style="fill:rgb(225,228,251);fill-rule:nonzero;"/>
    <path d="M40.537,21.039C41.748,22.25 43.712,22.25 44.923,21.039L49.294,16.667L43.81,11.183L37.246,17.747L40.537,21.039Z" style="fill:rgb(197,201,247);fill-rule:nonzero;"/>
    <path d="M16.834,49.135L44.923,21.039L33.954,10.07L5.865,38.167L8.07,42.544C8.887,43.362 9.956,43.839 11.103,43.899C11.163,45.003 11.614,46.089 12.456,46.931L16.834,49.135Z" style="fill:rgb(255,206,0);fill-rule:nonzero;"/>
    <path d="M11.103,43.899C11.163,45.003 11.615,46.088 12.457,46.93L16.834,49.135L44.923,21.039L39.438,15.554L11.102,43.899C11.102,43.899 11.102,43.899 11.103,43.899Z" style="fill:rgb(255,176,0);fill-rule:nonzero;"/>
    <path d="M13.552,45.833C12.341,44.622 12.341,42.659 13.552,41.448C12.341,42.659 10.378,42.659 9.167,41.448L5.875,38.156L5.865,38.166C5.694,38.337 5.567,38.545 5.49,38.773L2.443,47.934C4.735,48.467 6.533,50.264 7.066,52.557L16.227,49.51C16.455,49.433 16.663,49.306 16.834,49.135L16.844,49.125L13.552,45.833Z" style="fill:rgb(225,228,251);fill-rule:nonzero;"/>
    <path d="M1.492,53.508C1.788,53.803 2.184,53.962 2.589,53.962C2.752,53.962 2.917,53.937 3.078,53.884L16.227,49.511C16.456,49.433 16.663,49.306 16.834,49.135L16.844,49.125L13.552,45.833C12.341,44.622 12.341,42.659 13.552,41.448L1.492,53.508Z" style="fill:rgb(197,201,247);fill-rule:nonzero;"/>
    <path d="M2.443,47.934L1.117,51.923C0.932,52.48 1.077,53.093 1.492,53.508C1.787,53.803 2.184,53.962 2.588,53.962C2.752,53.962 2.917,53.936 3.078,53.883L7.066,52.557C6.533,50.264 4.736,48.467 2.443,47.934Z" style="fill-rule:nonzero;"/>
    <path d="M42.367,3.125C43.768,1.725 46.066,1.726 47.467,3.126L42.367,3.125ZM42.367,3.125L34.691,10.801L34.671,10.821L6.613,38.886L6.599,38.901C6.564,38.935 6.535,38.975 6.511,39.018C6.496,39.045 6.484,39.074 6.473,39.103C6.473,39.104 6.473,39.104 6.473,39.105L2.102,52.249C2.102,52.249 2.102,52.249 2.102,52.249C2.04,52.434 2.089,52.637 2.226,52.774C2.324,52.872 2.455,52.925 2.589,52.925C2.605,52.925 2.623,52.924 2.64,52.922C2.669,52.919 2.698,52.914 2.727,52.906L2.743,52.901L2.761,52.895L15.894,48.527C15.895,48.527 15.895,48.527 15.896,48.527C15.921,48.518 15.944,48.509 15.966,48.498C15.966,48.498 15.966,48.497 15.967,48.497L15.976,48.493C16.021,48.469 16.061,48.439 16.097,48.404L16.11,48.391L51.867,12.627C52.551,11.943 52.924,11.04 52.924,10.078C52.924,9.113 52.551,8.211 51.868,7.529L47.467,3.126M40.9,1.658C43.112,-0.553 46.724,-0.552 48.934,1.659L53.334,6.06C54.407,7.132 55,8.562 55,10.078C55,11.592 54.407,13.022 53.335,14.094L17.582,49.854L17.567,49.87C17.378,50.058 17.163,50.215 16.929,50.336L16.92,50.341L16.898,50.352C16.788,50.407 16.675,50.454 16.559,50.493L16.554,50.495L3.395,54.872L3.348,54.886L3.303,54.9C3.152,54.943 2.998,54.972 2.844,54.987C2.844,54.987 2.844,54.987 2.844,54.987C2.759,54.996 2.674,55 2.589,55C1.913,55 1.251,54.735 0.758,54.242C0.066,53.549 -0.176,52.526 0.132,51.596L4.505,38.446L4.506,38.442C4.555,38.298 4.616,38.158 4.688,38.025M5.132,37.432L5.122,37.442L5.865,38.166L5.132,37.432ZM40.9,1.658L33.22,9.336L40.9,1.658ZM33.22,9.336L33.218,9.339L33.22,9.336ZM33.218,9.339L33.203,9.353L33.218,9.339ZM33.203,9.353L33.2,9.356L33.203,9.353Z" style="fill:rgb(99,0,0);"/>
    <path d="M55,39.434C55,48.031 48.031,55 39.434,55C30.837,55 23.868,48.031 23.868,39.434C23.868,30.837 30.837,23.868 39.434,23.868C48.031,23.868 55,30.837 55,39.434Z" style="fill:url(#_Linear1);fill-rule:nonzero;"/>
    <path d="M39.434,52.925C46.885,52.925 52.925,46.885 52.925,39.434C52.925,31.983 46.885,25.943 39.434,25.943C31.983,25.943 25.943,31.983 25.943,39.434C25.943,46.885 31.983,52.925 39.434,52.925ZM39.434,55C48.031,55 55,48.031 55,39.434C55,30.837 48.031,23.868 39.434,23.868C30.837,23.868 23.868,30.837 23.868,39.434C23.868,48.031 30.837,55 39.434,55Z" style="fill:rgb(99,0,0);"/>
    <path d="M45.929,37.893L41.107,37.893L41.107,33.071C41.107,32.502 40.605,32 40.036,32L38.964,32C38.362,32 37.893,32.502 37.893,33.071L37.893,37.893L33.071,37.893C32.469,37.893 32,38.395 32,38.964L32,40.036C32,40.638 32.469,41.107 33.071,41.107L37.893,41.107L37.893,45.929C37.893,46.531 38.362,47 38.964,47L40.036,47C40.605,47 41.107,46.531 41.107,45.929L41.107,41.107L45.929,41.107C46.498,41.107 47,40.638 47,40.036L47,38.964C47,38.395 46.498,37.893 45.929,37.893Z" style="fill:white;fill-rule:nonzero;"/>
    <defs>
        <linearGradient id="_Linear1" x1="0" y1="0" x2="1" y2="0" gradientUnits="userSpaceOnUse" gradientTransform="matrix(31.1321,31.1321,-31.1321,31.1321,23.8679,23.8679)"><stop offset="0" style="stop-color:rgb(62,173,255);stop-opacity:1"/><stop offset="1" style="stop-color:rgb(62,103,255);stop-opacity:1"/></linearGradient>
    </defs>
</svg>
